<?xml version="1.0" encoding="UTF-8"?>
<svg id="Ebene_5" data-name="Ebene 5" xmlns="http://www.w3.org/2000/svg" xmlns:xlink="http://www.w3.org/1999/xlink" viewBox="0 0 1710.48 818.71">
  <defs>
    <style>
      .cls-1 {
        stroke-dasharray: 4.9 9.8;
      }

      .cls-1, .cls-2, .cls-3, .cls-4, .cls-5 {
        stroke-linecap: round;
      }

      .cls-1, .cls-3, .cls-4, .cls-5, .cls-6, .cls-7, .cls-8, .cls-9 {
        stroke: #000;
      }

      .cls-1, .cls-10, .cls-4, .cls-5, .cls-8, .cls-9 {
        fill: none;
      }

      .cls-1, .cls-4, .cls-5 {
        stroke-linejoin: round;
      }

      .cls-1, .cls-4, .cls-5, .cls-9 {
        stroke-width: 2px;
      }

      .cls-2, .cls-3, .cls-10, .cls-11, .cls-6, .cls-7, .cls-8, .cls-9 {
        stroke-miterlimit: 10;
      }

      .cls-2, .cls-3, .cls-11, .cls-6, .cls-12, .cls-7 {
        fill: #fff;
      }

      .cls-2, .cls-10, .cls-11 {
        stroke: #e30037;
      }

      .cls-13, .cls-14 {
        fill: #e30037;
      }

      .cls-14, .cls-15 {
        font-size: 18px;
      }

      .cls-14, .cls-15, .cls-16 {
        font-family: Knile-Regular, Knile;
      }

      .cls-17 {
        font-size: 16.76px;
      }

      .cls-17, .cls-18 {
        font-family: DigitalNumbers-Regular, 'Digital Numbers';
      }

      .cls-16 {
        font-size: 17.31px;
      }

      .cls-5 {
        stroke-dasharray: 2.01 4.02;
      }

      .cls-19 {
        font-size: 16px;
      }

      .cls-20 {
        font-size: 25.07px;
      }

      .cls-7 {
        stroke-width: .75px;
      }

      .cls-21 {
        letter-spacing: -.03em;
      }

      .cls-22 {
        letter-spacing: -.03em;
      }

      .cls-23 {
        letter-spacing: -.01em;
      }

      .cls-24 {
        letter-spacing: 0em;
      }

      .cls-25 {
        clip-path: url(#clippath);
      }

      .cls-26 {
        letter-spacing: .03em;
      }

      .cls-27 {
        letter-spacing: 0em;
      }
    </style>
    <clipPath id="clippath">
      <circle class="cls-8" cx="253.53" cy="665.79" r="76.74"/>
    </clipPath>
  </defs>
  <path class="cls-10" d="M483.83,435.36l8.75-9.04c2.27-2.34,6.11-2.23,8.24.24l2.26,2.63c2.53,2.94,7.31,2.43,9.13-.99l9.52-17.89c2.03-3.82,7.58-3.89,9.72-.14l7.55,13.25c2.1,3.68,7.51,3.7,9.63.03l.21-.36c2.01-3.48,7.04-3.7,9.36-.41l4.7,6.68c2.25,3.19,7.09,3.1,9.21-.17l1.52-2.34c2.02-3.11,6.57-3.37,8.95-.51h0c2.3,2.77,6.65,2.64,8.78-.26l11.43-15.58c2.23-3.04,6.87-3,9.04.09l12.3,17.47c2.46,3.49,7.88,2.98,9.61-.91l2.98-6.69c1.97-4.42,8.41-4.3,10.21.18l.16.39c1.41,3.51,5.97,4.57,8.84,2.04l11.29-9.94c2.4-2.12,6.14-1.77,8.09.75l9.6,12.37c.33.42.71.79,1.15,1.1l5.06,3.6c1.4,1,3.2,1.29,4.86.8l11.58-3.45c1.53-.46,2.78-1.53,3.43-2.96l4.89-10.67c1.64-3.57,6.49-4.31,9.15-1.4l12.61,13.77c.33.36.61.76.83,1.19l1.43,2.8c1.4,2.75,4.86,3.8,7.61,2.32l14.54-7.85c.9-.49,1.64-1.21,2.15-2.08l2.16-3.76c1.79-3.12,6.13-3.7,8.72-1.17l5.25,5.14c.29.28.61.53.96.75l9.47,5.86c2.18,1.35,5.03,1.04,6.86-.75l1.84-1.8c1.76-1.72,4.48-2.08,6.65-.87l11.51,6.44"/>
  <path class="cls-8" d="M364.74,410.15h-136.95c-22.43,0-40.62-18.19-40.62-40.62v-46.33"/>
  <path class="cls-8" d="M397.21,497.12v127.03c0,23-18.64,41.64-41.64,41.64h-19.91"/>
  <circle class="cls-6" cx="452.81" cy="163.76" r="82.69"/>
  <text class="cls-16" transform="translate(131.29 178.77) rotate(-32.17)"><tspan x="0" y="0">L</tspan></text>
  <text class="cls-16" transform="translate(138.91 173.89) rotate(-26.03)"><tspan x="0" y="0">u</tspan></text>
  <text class="cls-16" transform="translate(148.75 169.2) rotate(-20.86)"><tspan x="0" y="0">f</tspan></text>
  <text class="cls-16" transform="translate(154.1 167.16) rotate(-17.26)"><tspan x="0" y="0">t</tspan></text>
  <text class="cls-16" transform="translate(159.64 165.43) rotate(-13.65)"><tspan x="0" y="0">f</tspan></text>
  <text class="cls-16" transform="translate(165.15 163.99) rotate(-8.78)"><tspan x="0" y="0">e</tspan></text>
  <text class="cls-16" transform="translate(174.83 162.45) rotate(-2.4)"><tspan x="0" y="0">u</tspan></text>
  <text class="cls-16" transform="translate(185.68 162.02) rotate(3.79)"><tspan x="0" y="0">c</tspan></text>
  <text class="cls-16" transform="translate(195.07 162.57) rotate(10.2)"><tspan x="0" y="0">h</tspan></text>
  <text class="cls-16" transform="translate(206.19 164.69) rotate(15.52)"><tspan x="0" y="0">t</tspan></text>
  <text class="cls-16" transform="translate(211.76 166.24) rotate(18.98)"><tspan x="0" y="0">i</tspan></text>
  <text class="cls-16" transform="translate(216.75 167.8) rotate(24.14)"><tspan x="0" y="0">g</tspan></text>
  <text class="cls-16" transform="translate(226.96 172.41) rotate(30.53)"><tspan x="0" y="0">k</tspan></text>
  <text class="cls-16" transform="translate(235.03 177.14) rotate(36.48)"><tspan x="0" y="0">e</tspan></text>
  <text class="cls-16" transform="translate(242.94 183.09) rotate(41.16)"><tspan x="0" y="0">i</tspan></text>
  <text class="cls-16" transform="translate(246.93 186.56) rotate(44.58)"><tspan x="0" y="0">t</tspan></text>
  <text class="cls-16" transform="translate(251.07 190.66) rotate(47.88)"><tspan x="0" y="0"> </tspan></text>
  <text class="cls-15" transform="translate(209.06 580.63) rotate(-24.33)"><tspan x="0" y="0">T</tspan></text>
  <text class="cls-15" transform="translate(218.36 576.39) rotate(-18.32)"><tspan x="0" y="0">e</tspan></text>
  <text class="cls-15" transform="translate(227.92 572.95) rotate(-10.2)"><tspan x="0" y="0">m</tspan></text>
  <text class="cls-15" transform="translate(244.56 570.12) rotate(-1.72)"><tspan x="0" y="0">p</tspan></text>
  <text class="cls-15" transform="translate(256.49 569.8) rotate(4.85)"><tspan x="0" y="0">e</tspan></text>
  <text class="cls-15" transform="translate(266.73 570.72) rotate(10.06)"><tspan x="0" y="0">r</tspan></text>
  <text class="cls-15" transform="translate(273.81 571.88) rotate(15.4)"><tspan x="0" y="0">a</tspan></text>
  <text class="cls-15" transform="translate(284.03 574.79) rotate(20.4)"><tspan x="0" y="0">t</tspan></text>
  <text class="cls-15" transform="translate(289.67 576.75) rotate(25.6)"><tspan x="0" y="0">u</tspan></text>
  <text class="cls-15" transform="translate(299.85 581.72) rotate(31.13)"><tspan x="0" y="0">r</tspan></text>
  <circle class="cls-6" cx="184.34" cy="250.67" r="76.74"/>
  <path class="cls-6" d="M184.34,221.05l-17.1,29.61c-7.6,13.16,1.9,29.61,17.1,29.61h0c15.2,0,24.7-16.45,17.1-29.61l-17.1-29.61Z"/>
  <circle class="cls-6" cx="253.53" cy="665.79" r="82.69"/>
  <g>
    <g class="cls-25">
      <path class="cls-8" d="M174.68,633.81c5.26,0,5.26,10,10.53,10s5.27-10,10.53-10,5.26,10,10.53,10,5.27-10,10.53-10,5.27,10,10.53,10,5.27-10,10.53-10,5.27,10,10.53,10,5.27-10,10.53-10,5.26,10,10.53,10,5.26-10,10.53-10,5.27,10,10.53,10,5.27-10,10.54-10,5.27,10,10.53,10,5.27-10,10.54-10,5.27,10,10.54,10"/>
      <path class="cls-8" d="M174.68,619.51c5.26,0,5.26,10,10.53,10s5.27-10,10.53-10,5.26,10,10.53,10,5.27-10,10.53-10,5.27,10,10.53,10,5.27-10,10.53-10,5.27,10,10.53,10,5.27-10,10.53-10,5.26,10,10.53,10,5.26-10,10.53-10,5.27,10,10.53,10,5.27-10,10.54-10,5.27,10,10.53,10,5.27-10,10.54-10,5.27,10,10.54,10"/>
      <path class="cls-8" d="M174.68,605.21c5.26,0,5.26,10,10.53,10s5.27-10,10.53-10,5.26,10,10.53,10,5.27-10,10.53-10,5.27,10,10.53,10,5.27-10,10.53-10,5.27,10,10.53,10,5.27-10,10.53-10,5.26,10,10.53,10,5.26-10,10.53-10,5.27,10,10.53,10,5.27-10,10.54-10,5.27,10,10.53,10,5.27-10,10.54-10,5.27,10,10.54,10"/>
      <path class="cls-8" d="M174.68,590.91c5.26,0,5.26,10,10.53,10s5.27-10,10.53-10,5.26,10,10.53,10,5.27-10,10.53-10,5.27,10,10.53,10,5.27-10,10.53-10,5.27,10,10.53,10,5.27-10,10.53-10,5.26,10,10.53,10,5.26-10,10.53-10,5.27,10,10.53,10,5.27-10,10.54-10,5.27,10,10.53,10,5.27-10,10.54-10,5.27,10,10.54,10"/>
      <path class="cls-8" d="M174.68,648.11c5.26,0,5.26,10,10.53,10s5.27-10,10.53-10,5.26,10,10.53,10,5.27-10,10.53-10,5.27,10,10.53,10,5.27-10,10.53-10,5.27,10,10.53,10,5.27-10,10.53-10,5.26,10,10.53,10,5.26-10,10.53-10,5.27,10,10.53,10,5.27-10,10.54-10,5.27,10,10.53,10,5.27-10,10.54-10,5.27,10,10.54,10"/>
      <path class="cls-8" d="M174.68,660.66c5.26,0,5.26,10,10.53,10s5.27-10,10.53-10,5.26,10,10.53,10,5.27-10,10.53-10,5.27,10,10.53,10,5.27-10,10.53-10,5.27,10,10.53,10,5.27-10,10.53-10,5.26,10,10.53,10,5.26-10,10.53-10,5.27,10,10.53,10,5.27-10,10.54-10,5.27,10,10.53,10,5.27-10,10.54-10,5.27,10,10.54,10"/>
      <path class="cls-8" d="M174.68,673.21c5.26,0,5.26,10,10.53,10s5.27-10,10.53-10,5.26,10,10.53,10,5.27-10,10.53-10,5.27,10,10.53,10,5.27-10,10.53-10,5.27,10,10.53,10,5.27-10,10.53-10,5.26,10,10.53,10,5.26-10,10.53-10,5.27,10,10.53,10,5.27-10,10.54-10,5.27,10,10.53,10,5.27-10,10.54-10,5.27,10,10.54,10"/>
      <path class="cls-8" d="M174.68,685.76c5.26,0,5.26,10,10.53,10s5.27-10,10.53-10,5.26,10,10.53,10,5.27-10,10.53-10,5.27,10,10.53,10,5.27-10,10.53-10,5.27,10,10.53,10,5.27-10,10.53-10,5.26,10,10.53,10,5.26-10,10.53-10,5.27,10,10.53,10,5.27-10,10.54-10,5.27,10,10.53,10,5.27-10,10.54-10,5.27,10,10.54,10"/>
      <path class="cls-8" d="M174.68,698.32c5.26,0,5.26,10,10.53,10s5.27-10,10.53-10,5.26,10,10.53,10,5.27-10,10.53-10,5.27,10,10.53,10,5.27-10,10.53-10,5.27,10,10.53,10,5.27-10,10.53-10,5.26,10,10.53,10,5.26-10,10.53-10,5.27,10,10.53,10,5.27-10,10.54-10,5.27,10,10.53,10,5.27-10,10.54-10,5.27,10,10.54,10"/>
      <path class="cls-8" d="M174.68,710.87c5.26,0,5.26,10,10.53,10s5.27-10,10.53-10,5.26,10,10.53,10,5.27-10,10.53-10,5.27,10,10.53,10,5.27-10,10.53-10,5.27,10,10.53,10,5.27-10,10.53-10,5.26,10,10.53,10,5.26-10,10.53-10,5.27,10,10.53,10,5.27-10,10.54-10,5.27,10,10.53,10,5.27-10,10.54-10,5.27,10,10.54,10"/>
      <path class="cls-8" d="M174.68,723.42c5.26,0,5.26,10,10.53,10s5.27-10,10.53-10,5.26,10,10.53,10,5.27-10,10.53-10,5.27,10,10.53,10,5.27-10,10.53-10,5.27,10,10.53,10,5.27-10,10.53-10,5.26,10,10.53,10,5.26-10,10.53-10,5.27,10,10.53,10,5.27-10,10.54-10,5.27,10,10.53,10,5.27-10,10.54-10,5.27,10,10.54,10"/>
      <path class="cls-8" d="M174.68,735.3c5.26,0,5.26,10,10.53,10s5.27-10,10.53-10,5.26,10,10.53,10,5.27-10,10.53-10,5.27,10,10.53,10,5.27-10,10.53-10,5.27,10,10.53,10,5.27-10,10.53-10,5.26,10,10.53,10,5.26-10,10.53-10,5.27,10,10.53,10,5.27-10,10.54-10,5.27,10,10.53,10,5.27-10,10.54-10,5.27,10,10.54,10"/>
    </g>
    <circle class="cls-8" cx="253.53" cy="665.79" r="76.74"/>
  </g>
  <g>
    <line class="cls-4" x1="463.26" y1="462.94" x2="465.76" y2="462.94"/>
    <line class="cls-1" x1="475.57" y1="462.94" x2="823.56" y2="462.94"/>
    <line class="cls-4" x1="828.46" y1="462.94" x2="830.96" y2="462.94"/>
    <polygon points="824.33 471.12 822.97 469.65 830.19 462.94 822.97 456.22 824.33 454.76 833.13 462.94 824.33 471.12"/>
  </g>
  <g>
    <line class="cls-4" x1="463.26" y1="439.12" x2="464.26" y2="439.12"/>
    <line class="cls-5" x1="468.28" y1="439.12" x2="827.95" y2="439.12"/>
    <line class="cls-4" x1="829.96" y1="439.12" x2="830.96" y2="439.12"/>
    <polygon points="824.33 447.3 822.97 445.83 830.19 439.12 822.97 432.4 824.33 430.94 833.13 439.12 824.33 447.3"/>
  </g>
  <line class="cls-9" x1="425.33" y1="240.96" x2="425.33" y2="459"/>
  <g>
    <path class="cls-6" d="M364.73,508.08l2.53,2.33c.99.91,2.07,1.72,3.25,2.37,3.02,1.69,7.51,3.67,9.94,3.82l76.51,4.6c10.26.62,19.17-6.97,20.2-17.19l8.22-81.41c1.07-10.61-6.37-20.2-16.91-21.79h0s-13.77-.29-13.77-.29"/>
    <path class="cls-6" d="M453.1,519.09l-76.34-5.04c-9.63-.64-16.86-9.05-16.04-18.67l7.07-82.59c.63-7.4,6.87-13.07,14.3-12.99l82.49.84c9.18.09,16.34,7.96,15.58,17.11l-7.02,84.09c-.86,10.25-9.77,17.93-20.04,17.25Z"/>
    <path class="cls-6" d="M452.41,511.51l-77.04-5.47c-6.52-.46-11.4-6.18-10.84-12.69l6.87-79.09c.53-6.13,5.71-10.8,11.87-10.7l77.48,1.31c6.79.12,12.06,5.97,11.47,12.73l-7.31,83.25c-.56,6.37-6.12,11.11-12.5,10.66Z"/>
    <path class="cls-8" d="M377.17,488.7l6.12-69.98c.08-.9.85-1.59,1.75-1.56l70.58,1.94c.98.03,1.73.86,1.66,1.84l-5.37,71.77c-.07.93-.87,1.63-1.8,1.58l-71.32-3.73c-.97-.05-1.7-.89-1.62-1.86Z"/>
    <circle cx="412.93" cy="501.17" r="2.99"/>
  </g>
  <text class="cls-14" transform="translate(840.42 506.34)"><tspan x="0" y="0">3.</tspan></text>
  <text class="cls-14" transform="translate(339.64 439.5)"><tspan x="0" y="0">1.</tspan></text>
  <text class="cls-14" transform="translate(562.2 72.32)"><tspan x="0" y="0">2.</tspan></text>
  <text class="cls-14" transform="translate(1450 550.98)"><tspan x="0" y="0">4.</tspan></text>
  <circle cx="367.73" cy="410.15" r="5.52"/>
  <circle cx="397.33" cy="515.78" r="5.52"/>
  <g>
    <path class="cls-7" d="M1473.05,354.74c1.26-.85,4.25-2.84,5.78-2.59.6.1,1.27.43,1.81.71,2.61,1.33,5.14,2.91,7.7,4.34l22.22,12.72,52.91,30.08,10.42,5.8c1.7.94,3.47,1.82,5.11,2.84.72.45,1.4,1.2,1.96,1.85-1.54.92-3.25,1.69-4.91,2.34l1.01,1.26c1.03,1.47,1.49,2.77,1.66,4.56,1.63-.72,3.21-1.54,4.74-2.45.25,7.46.05,15,0,22.46v26.25s-.03,18.34-.03,18.34c0,2.88.21,6.25-.05,9.07-.13,1.42-.51,2.71-1.51,3.79-1.09,1.17-2.74,1.78-4.3,1.97-.25.18-.38.25-.44.57-.27,1.28.03,2.71-.12,4.01l-55.38,29.6c-3.31,1.79-6.61,3.59-9.89,5.42-2.49,1.38-7.48,4.56-10.09,4.97-.79.12-1.65.17-2.45.1-.88-.08-1.62-.31-2.4-.72-1.59-.84-3.13-1.8-4.71-2.68-3.7-2.04-7.38-4.13-11.04-6.24l-25.76-14.75-50.45-28.61c-2.56-1.47-5.13-2.93-7.7-4.37-1.42-.8-3-1.54-4.32-2.5-.31-.22-.55-.5-.8-.79-.42-1.81-.16-4.28-.18-6.17.06-.54.15-1.02.32-1.54.67-.68,1.56-1.11,2.39-1.56,4.94-2.72,9.98-5.26,14.97-7.87l33.03-17.22c6.66-3.59,13.37-7.07,20.13-10.46,1.16-.59,4.95-2.73,5.88-2.94.89-.19,10.63,5.96,12.13,6.77l.06-.13c-1.93-1.24-3.95-2.35-5.91-3.52-.93-.55-2.04-1.11-2.86-1.82-.77-.41-1.51-.89-2.26-1.33l.32-53.56.03-15.34c0-1.97-.22-5.83.25-7.55.3-1.1,1-2.14,1.99-2.72l.77-.36Z"/>
    <path class="cls-7" d="M1392.14,474.36c.67-.68,1.56-1.11,2.39-1.56,4.94-2.72,9.98-5.26,14.97-7.87l33.03-17.22c6.66-3.59,13.37-7.07,20.13-10.46,1.16-.59,4.95-2.73,5.88-2.94.89-.19,10.63,5.96,12.13,6.77,1.98,1.36,4.23,2.42,6.29,3.67l21.57,12.78c8.95,5.43,17.96,10.75,27.03,15.96l15.17,8.62,17.5,10.08c2.47,1.42,4.91,3.02,7.44,4.3l-55.38,29.73c-3.05,1.62-6.1,3.27-9.14,4.92-2.74,1.5-6.64,4-9.57,4.66-.01,2.28,0,4.56.05,6.84-.79.12-1.65.17-2.45.1-.88-.08-1.62-.31-2.4-.72-1.59-.84-3.13-1.8-4.71-2.68-3.7-2.04-7.38-4.13-11.04-6.24l-25.76-14.75-50.45-28.61c-2.56-1.47-5.13-2.93-7.7-4.37-1.42-.8-3-1.54-4.32-2.5-.31-.22-.55-.5-.8-.79-.42-1.81-.16-4.28-.18-6.17.06-.54.15-1.02.32-1.54Z"/>
    <polygon class="cls-7" points="1423.27 462.15 1521.32 519.79 1562.7 498.02 1464.17 440.87 1423.27 462.15"/>
    <path class="cls-7" d="M1391.81,475.91c2.47,1.19,4.85,2.63,7.24,3.98l15.92,9.16c18.83,10.56,37.56,21.29,56.19,32.19,5.95,3.41,11.85,6.92,17.84,10.26,2.31,1.29,4.62,2.83,7.06,3.84,1.7.71,3.72.82,5.52.47-.01,2.28,0,4.56.05,6.84-.79.12-1.65.17-2.45.1-.88-.08-1.62-.31-2.4-.72-1.59-.84-3.13-1.8-4.71-2.68-3.7-2.04-7.38-4.13-11.04-6.24l-25.76-14.75-50.45-28.61c-2.56-1.47-5.13-2.93-7.7-4.37-1.42-.8-3-1.54-4.32-2.5-.31-.22-.55-.5-.8-.79-.42-1.81-.16-4.28-.18-6.17Z"/>
    <g>
      <g>
        <path class="cls-12" d="M1521.95,516.01c-1.72-1.15-3.54-2.2-5.3-3.2.36-.21.75-.41,1.12-.6.24-.12.48-.25.71-.38,1.2-.65,2.4-1.28,3.61-1.9,1.07-.55,2.15-1.11,3.21-1.68l18.27-10.03c1.78.79,3.97,2.14,5.56,3.25l-16.06,8.66c-2.49,1.37-5.04,2.74-7.59,4.08l-.91.49c-.86.46-1.74.93-2.63,1.32Z"/>
        <path d="M1543.59,498.63c1.53.71,3.38,1.82,4.83,2.8l-15.52,8.37c-2.5,1.38-5.05,2.75-7.58,4.08-.31.16-.62.33-.93.5-.78.42-1.59.85-2.4,1.22-1.49-.99-3.05-1.9-4.58-2.77.17-.09.35-.18.52-.27.24-.13.49-.25.72-.38,1.19-.65,2.42-1.28,3.6-1.9,1.08-.56,2.15-1.11,3.23-1.69l18.11-9.94M1543.56,497.79l-18.43,10.12c-2.26,1.22-4.57,2.36-6.83,3.59-.79.43-1.64.83-2.39,1.32,2.03,1.16,4.07,2.31,6,3.62,1.28-.54,2.52-1.26,3.75-1.9,2.55-1.33,5.08-2.7,7.6-4.08l16.59-8.94c-1.74-1.26-4.33-2.87-6.29-3.72h0Z"/>
      </g>
      <g>
        <path class="cls-12" d="M1545.1,497.38c1.51-.9,3.08-1.77,4.59-2.61l1.1-.61c1.39.69,4.46,2.45,5.56,3.42-.67.35-1.35.72-2.02,1.09-1.25.68-2.55,1.39-3.84,1.99l-5.39-3.27Z"/>
        <path d="M1550.8,494.58c1.37.69,3.68,2.04,4.87,2.93-.51.27-1.03.55-1.53.83-1.19.65-2.41,1.31-3.63,1.89l-4.68-2.84c1.34-.79,2.72-1.55,4.05-2.3l.91-.51M1550.77,493.74c-2.14,1.2-4.3,2.37-6.4,3.64l6.09,3.7c2.2-1.01,4.34-2.29,6.5-3.4-.72-1-4.91-3.33-6.19-3.94h0Z"/>
      </g>
      <g>
        <path class="cls-12" d="M1489.57,496.74s-.07,0-.22-.08c-1.29-.62-2.58-1.36-3.82-2.07-.44-.25-.88-.51-1.33-.76-2.63-1.48-5.28-3.03-7.85-4.52-1.34-.78-2.68-1.56-4.03-2.34l-9.24-5.29c-.59-.33-1.18-.66-1.77-.98-1.32-.72-2.67-1.47-3.97-2.27,1.09-.73,2.28-1.39,3.44-2.03.72-.4,1.44-.8,2.13-1.21.87.33,5.08,2.79,6.93,3.88.61.35,1.08.63,1.31.76,2.22,1.26,4.46,2.51,6.7,3.75,5.79,3.23,11.78,6.56,17.48,10.12-.84.45-1.68.9-2.52,1.36-1.04.56-2.08,1.12-3.12,1.67-.06.01-.1.02-.13.02Z"/>
        <path d="M1462.94,475.6c1.14.52,5.13,2.85,6.72,3.78.61.35,1.08.63,1.31.76,2.22,1.26,4.46,2.51,6.7,3.75,5.6,3.12,11.39,6.34,16.92,9.77-.65.35-1.29.7-1.94,1.04-1.02.55-2.04,1.11-3.07,1.64-.02-.01-.05-.02-.08-.04-1.28-.61-2.55-1.35-3.79-2.06-.45-.26-.89-.51-1.33-.76-2.63-1.48-5.29-3.03-7.86-4.53-1.34-.78-2.67-1.56-4.01-2.33l-9.24-5.29c-.59-.33-1.18-.66-1.78-.99-1.14-.63-2.31-1.27-3.44-1.95.94-.6,1.95-1.15,2.93-1.7.65-.36,1.32-.73,1.97-1.11M1462.86,474.77c-2.03,1.22-4.27,2.29-6.2,3.66,2.01,1.29,4.15,2.4,6.24,3.57l9.24,5.29c3.96,2.29,7.9,4.62,11.88,6.86,1.7.96,3.41,1.99,5.16,2.84.17.08.27.12.39.12.07,0,.15-.01.26-.04,2.1-1.1,4.17-2.26,6.27-3.36-8.05-5.06-16.48-9.55-24.75-14.23-1.14-.64-7.81-4.62-8.48-4.72h0Z"/>
      </g>
      <g>
        <path class="cls-12" d="M1434.43,465.34c-1.57-.81-4.21-2.16-4.75-2.68-.09-.09-.12-.11-.12-.21.56-.6,4.03-2.34,5.37-3.01.41-.2.75-.38,1-.5.85.37,4.37,2.55,5.79,3.51-1.1.72-2.32,1.35-3.5,1.96-.91.47-1.84.95-2.73,1.47-.27-.14-.63-.33-1.04-.54Z"/>
        <path d="M1435.93,459.36c.91.45,3.59,2.11,5.09,3.08-.95.59-1.98,1.11-2.98,1.63-.85.44-1.73.89-2.57,1.38-.24-.13-.54-.28-.87-.45-1.35-.69-3.78-1.94-4.52-2.5.96-.7,3.84-2.14,5.01-2.72.33-.16.61-.31.84-.42M1435.89,458.53c-1.19.63-6.28,3.03-6.72,3.81.01.29.03.39.25.59.77.72,4.93,2.76,6.07,3.38,2.23-1.35,4.77-2.37,6.89-3.86-.84-.61-5.77-3.73-6.48-3.92h0Z"/>
      </g>
      <g>
        <path class="cls-12" d="M1440.93,468.98c-1.37-.74-2.77-1.5-4.12-2.31,2.06-1.15,4.12-2.29,6.19-3.41,1.39.67,2.76,1.55,4.1,2.41.42.27.84.54,1.25.79-1.5.87-5.24,2.95-6.01,3.29-.47-.26-.95-.51-1.42-.77Z"/>
        <path d="M1443.02,463.68c1.31.65,2.62,1.49,3.9,2.3.24.15.48.31.72.46-1.59.91-4.37,2.45-5.27,2.89-.42-.23-.84-.45-1.26-.68-1.17-.63-2.38-1.28-3.54-1.97,1.81-1.01,3.64-2.01,5.45-3M1443,462.83c-2.32,1.26-4.62,2.53-6.92,3.82,2.01,1.26,4.16,2.36,6.24,3.51.32-.01,6.14-3.3,6.77-3.7-1.97-1.2-4-2.65-6.09-3.63h0Z"/>
      </g>
      <g>
        <path class="cls-12" d="M1449.23,473.71c-1.54-.71-3.81-2.05-5.51-3.15l.73-.4c1.73-.95,3.51-1.93,5.3-2.86.79.3,2.21,1.19,3.47,1.97.65.41,1.28.8,1.81,1.11-.38.22-.75.45-1.13.68-1.52.92-3.08,1.87-4.67,2.65Z"/>
        <path d="M1449.76,467.72c.77.33,2.09,1.15,3.26,1.88.45.28.88.55,1.28.79-.2.12-.39.24-.59.36-1.46.88-2.96,1.8-4.48,2.55-1.35-.64-3.24-1.74-4.78-2.71l.21-.11c1.67-.91,3.38-1.86,5.1-2.75M1449.72,466.9c-2.27,1.17-4.49,2.41-6.72,3.63,1.67,1.11,4.46,2.8,6.25,3.6,2.25-1.09,4.4-2.49,6.55-3.76-1.53-.78-4.77-3.06-6.07-3.47h0Z"/>
      </g>
      <g>
        <path class="cls-12" d="M1456.68,454.26c-.62-.35-1.26-.69-1.9-1.03-1.32-.7-2.67-1.42-3.88-2.24,1.93-1.02,3.88-2.02,5.81-2.99,1.52.69,3.02,1.61,4.47,2.51.38.23.75.46,1.12.68-1.46.88-3.01,1.69-4.51,2.47l-1.11.58Z"/>
        <path d="M1456.71,448.42c1.44.67,2.88,1.56,4.27,2.41.2.12.39.24.59.36-1.29.75-2.63,1.46-3.95,2.14-.32.16-.63.33-.94.49-.57-.32-1.16-.63-1.73-.93-1.12-.59-2.26-1.2-3.32-1.87,1.68-.88,3.38-1.76,5.08-2.6M1456.7,447.59c-2.19,1.09-4.36,2.21-6.52,3.36,1.97,1.44,4.37,2.53,6.49,3.73,2.12-1.12,4.32-2.21,6.35-3.49-2.05-1.21-4.15-2.63-6.32-3.6h0Z"/>
      </g>
      <g>
        <path class="cls-12" d="M1463.71,450.32c-.67-.27-3.43-1.9-4.8-2.71-.27-.16-.52-.3-.73-.43,1.9-1.02,3.79-2.06,5.64-3.1.7.12,4.14,2.18,5.56,3.12-1.69,1.12-3.79,2.2-5.67,3.12Z"/>
        <path d="M1463.86,444.49c.82.27,3.37,1.78,4.83,2.72-1.53.97-3.33,1.89-4.99,2.7-.85-.4-3.45-1.93-4.62-2.63-.05-.03-.1-.06-.14-.08,1.64-.89,3.29-1.8,4.92-2.71M1463.75,443.7s-.02,0-.03,0c-2.09,1.18-4.2,2.33-6.31,3.46.94.53,5.76,3.45,6.33,3.55,2.04-1,4.45-2.21,6.3-3.51-.77-.57-5.49-3.51-6.29-3.51h0Z"/>
      </g>
      <g>
        <path class="cls-12" d="M1449.79,458.04c-.96-.58-1.95-1.12-2.91-1.65-.97-.53-1.97-1.07-2.92-1.66,1.75-1.01,3.57-1.98,5.42-2.96,1.81.81,3.6,1.95,5.33,3.04l.44.27c-.72.39-1.44.79-2.15,1.2-1.04.59-2.12,1.21-3.21,1.75Z"/>
        <path d="M1449.39,452.19c1.69.78,3.38,1.84,5.01,2.88-.54.3-1.07.6-1.59.9-.98.56-1.99,1.13-3.01,1.64-.91-.55-1.84-1.06-2.75-1.55-.78-.43-1.58-.86-2.36-1.32,1.53-.87,3.09-1.7,4.69-2.54M1449.36,451.36c-2.06,1.08-4.13,2.18-6.13,3.36,2.11,1.35,4.4,2.43,6.54,3.75,2.09-1.02,4.06-2.27,6.13-3.34-2.08-1.3-4.29-2.78-6.53-3.76h0Z"/>
      </g>
      <g>
        <path class="cls-12" d="M1454.59,476.76c-1.36-.72-2.77-1.46-4.09-2.27,1.36-.66,2.69-1.42,3.98-2.16.62-.35,1.23-.71,1.85-1.05.7.2,2.65,1.4,3.97,2.21.53.32,1.01.62,1.4.85-1.62.98-3.63,2.15-5.69,3.17-.47-.25-.94-.5-1.42-.75Z"/>
        <path d="M1456.38,471.7c.74.28,2.65,1.46,3.73,2.12.31.19.6.37.86.53-1.46.87-3.18,1.86-4.96,2.75-.42-.22-.83-.44-1.25-.66-1.16-.61-2.34-1.23-3.48-1.9,1.16-.59,2.29-1.23,3.39-1.87.57-.32,1.13-.65,1.7-.96M1456.28,470.9c-2.17,1.19-4.3,2.53-6.55,3.55,1.99,1.29,4.18,2.36,6.28,3.49,2.19-1.07,4.36-2.33,6.44-3.6-1.25-.65-5.18-3.3-6.16-3.44h0Z"/>
      </g>
      <g>
        <path class="cls-12" d="M1470.61,454.16c-1.38-.67-2.76-1.48-4.1-2.26-.44-.26-.88-.51-1.32-.76,1.15-.75,2.41-1.41,3.63-2.05.74-.39,1.47-.77,2.18-1.18,1.25.73,2.48,1.48,3.72,2.23.53.32,1.06.65,1.59.97-1.78,1.14-3.76,2.11-5.7,3.06Z"/>
        <path d="M1471,448.33c1.18.69,2.37,1.42,3.53,2.12.36.22.71.43,1.07.65-1.57.96-3.29,1.81-4.98,2.63-1.31-.65-2.63-1.42-3.91-2.16-.26-.15-.52-.3-.78-.46.99-.61,2.05-1.16,3.08-1.7.66-.35,1.34-.71,2.01-1.08M1471,447.47c-2.14,1.23-4.5,2.28-6.52,3.69,2.02,1.13,4.05,2.42,6.13,3.41,2.13-1.04,4.43-2.16,6.4-3.48-2-1.2-3.99-2.45-6.01-3.62h0Z"/>
      </g>
      <g>
        <path class="cls-12" d="M1476.46,481.23c-1.1-.71-2.27-1.36-3.4-1.99-.66-.37-1.33-.74-1.98-1.13l5.58-3.11c1.45.79,2.89,1.66,4.29,2.5.36.22.72.43,1.08.65-2.16,1.33-3.95,2.32-5.57,3.08Z"/>
        <path d="M1476.67,475.43c1.38.76,2.76,1.59,4.1,2.39.18.11.36.22.55.33-1.83,1.11-3.39,1.97-4.82,2.65-1.06-.67-2.17-1.29-3.25-1.89-.46-.26-.93-.52-1.4-.79l4.83-2.69M1476.66,474.57l-6.33,3.53c2.01,1.21,4.14,2.28,6.1,3.55,2.13-.99,4.32-2.27,6.32-3.52-2.02-1.2-4.02-2.46-6.09-3.57h0Z"/>
      </g>
      <g>
        <path class="cls-12" d="M1502.64,504.49c-.77-.25-3.36-1.94-4.64-2.78-.17-.11-.34-.22-.48-.31,1.62-.98,3.45-1.97,5.7-3.09,1.44.69,2.87,1.57,4.25,2.42.32.19.63.39.95.58l-5.78,3.19Z"/>
        <path d="M1503.22,498.72c1.37.67,2.74,1.51,4.06,2.33.13.08.26.16.39.24l-5.06,2.79c-.87-.37-3.37-2-4.38-2.67,1.44-.85,3.06-1.72,5-2.69M1503.21,497.89c-2.15,1.07-4.36,2.24-6.41,3.5,1,.62,5.03,3.37,5.88,3.5l6.47-3.57c-1.94-1.16-3.91-2.47-5.95-3.43h0Z"/>
      </g>
      <g>
        <path class="cls-12" d="M1496.58,492.75c-.7-.29-3.78-2.22-4.98-2.97-.11-.07-.21-.13-.3-.19,1.37-.67,2.72-1.43,4.03-2.17.5-.28.99-.56,1.49-.84.59.24,1.18.62,1.76.98.19.12.38.24.57.35.99.6,2.01,1.2,3.03,1.79-1.82,1.05-3.69,2.14-5.6,3.06Z"/>
        <path d="M1496.84,486.99c.51.23,1.03.56,1.54.88.2.12.39.24.57.35.82.5,1.65.99,2.48,1.47-1.58.92-3.21,1.84-4.86,2.65-.82-.4-3.28-1.93-4.51-2.71,1.18-.6,2.33-1.25,3.45-1.89.44-.25.88-.5,1.32-.75M1496.79,486.16c-2.07,1.14-4.13,2.4-6.28,3.38.82.5,5.57,3.55,6.1,3.61,2.16-1.04,4.25-2.27,6.32-3.47-1.21-.68-2.41-1.38-3.6-2.1-.8-.48-1.67-1.09-2.55-1.42h0Z"/>
      </g>
      <g>
        <path class="cls-12" d="M1463.44,458.03c-.71-.19-4.14-2.22-5.29-2.9-.04-.02-.07-.04-.1-.06.58-.32,1.17-.63,1.75-.93,1.28-.67,2.6-1.36,3.81-2.17,1.1.36,3.32,1.7,4.81,2.6.24.15.47.29.68.41-1.91,1.01-3.81,2.03-5.66,3.06Z"/>
        <path d="M1463.67,452.38c1.1.42,3.16,1.66,4.57,2.51.04.02.07.04.11.07-1.65.88-3.3,1.77-4.93,2.67-.58-.23-2.12-1.08-4.6-2.54.39-.21.78-.41,1.17-.61,1.23-.65,2.51-1.31,3.69-2.09M1463.55,451.56c-1.96,1.33-4.2,2.32-6.26,3.51.79.45,5.58,3.36,6.19,3.36.01,0,.02,0,.03,0,2.11-1.16,4.22-2.3,6.35-3.42-1.43-.82-4.92-3.07-6.32-3.44h0Z"/>
      </g>
      <g>
        <path class="cls-12" d="M1464.74,458.89c1.88-1.03,3.79-2.05,5.7-3.04,1.18.32,3.57,1.79,5.02,2.67.12.08.24.15.35.21-.75.42-1.5.83-2.26,1.24-1.13.61-2.29,1.24-3.42,1.9l-5.39-2.99Z"/>
        <path d="M1470.47,456.25c1.11.35,3.2,1.62,4.59,2.47-.57.31-1.14.62-1.7.93-1.07.58-2.17,1.17-3.24,1.8l-4.61-2.56c1.64-.89,3.3-1.78,4.96-2.64M1470.38,455.45c-2.15,1.12-4.3,2.26-6.42,3.43l6.17,3.43c2.1-1.25,4.29-2.35,6.41-3.56-1.39-.83-4.7-2.99-6.16-3.3h0Z"/>
      </g>
      <g>
        <path class="cls-12" d="M1517.14,488.88c-1.43-.61-2.85-1.49-4.23-2.34-.38-.23-.75-.46-1.12-.69,1.85-1.06,3.7-2.1,5.57-3.12.44.14,2.22,1.2,5.29,3.14-1.28.77-2.63,1.48-3.93,2.17-.52.28-1.04.55-1.56.83Z"/>
        <path d="M1517.36,483.15c.46.21,1.66.88,4.56,2.71-1.11.65-2.27,1.26-3.4,1.86-.47.25-.93.49-1.4.74-1.35-.6-2.71-1.43-4.03-2.24-.19-.12-.38-.24-.57-.35,1.6-.91,3.22-1.82,4.84-2.71M1517.29,482.34s0,0,0,0c-2.09,1.15-4.17,2.32-6.24,3.51,1.96,1.14,4.03,2.57,6.12,3.44,2.06-1.12,4.2-2.17,6.18-3.42-.77-.48-5.5-3.54-6.06-3.54h0Z"/>
      </g>
      <g>
        <path class="cls-12" d="M1530.77,488.9c-.68-.27-3.73-2.09-4.91-2.8-.16-.09-.3-.18-.43-.25,1.71-1,3.54-2.01,5.56-3.07,1.79,1.01,3.58,2.04,5.35,3.08-1.85,1.04-3.73,2.06-5.58,3.05Z"/>
        <path d="M1530.98,483.21c1.54.87,3.08,1.75,4.6,2.64-1.6.89-3.22,1.78-4.83,2.64-.84-.4-3.43-1.94-4.58-2.63,1.49-.86,3.08-1.74,4.81-2.65M1531,482.35c-2.12,1.11-4.24,2.28-6.3,3.5.69.39,5.7,3.45,6.12,3.45,0,0,0,0,0,0,2.11-1.12,4.2-2.27,6.28-3.44-2.02-1.19-4.05-2.36-6.1-3.51h0Z"/>
      </g>
      <g>
        <path class="cls-12" d="M1496.83,484.96c-1.28-.59-2.94-1.6-4.41-2.49-.32-.19-.63-.38-.93-.56,1.35-.66,2.67-1.45,3.96-2.21.52-.31,1.03-.61,1.54-.91,1.36.7,2.7,1.5,4,2.28.46.28.93.55,1.39.83-1.85,1.03-3.7,2.05-5.56,3.06Z"/>
        <path d="M1497.01,479.22c1.29.67,2.57,1.44,3.81,2.18.27.16.55.33.82.49-1.6.89-3.21,1.78-4.81,2.65-1.23-.59-2.8-1.54-4.19-2.38-.12-.07-.24-.14-.35-.21,1.15-.59,2.27-1.26,3.37-1.92.46-.27.91-.54,1.36-.81M1496.99,478.37c-2.06,1.18-4.13,2.54-6.29,3.51,1.79,1.04,4.36,2.7,6.15,3.5,2.11-1.15,4.21-2.3,6.3-3.47-2.04-1.18-4.05-2.47-6.16-3.54h0Z"/>
      </g>
      <g>
        <path class="cls-12" d="M1483.35,477.22c-.63-.18-3.54-1.99-4.81-2.78-.14-.09-.28-.17-.4-.25,1.83-.98,3.63-2.07,5.3-3.11.78.25,3.8,2.04,5.12,2.83.17.1.33.2.47.28l-5.53,2.99s-.09.02-.16.03Z"/>
        <path d="M1483.48,471.5c.92.38,3.62,1.98,4.8,2.68l-4.89,2.65s0,0,0,0c-.72-.28-3.31-1.88-4.5-2.62,1.59-.87,3.14-1.81,4.6-2.71M1483.37,470.68c-1.95,1.21-3.96,2.42-5.99,3.48.97.58,5.24,3.32,5.96,3.43h0s.28-.05.28-.05c.02,0,.04-.02.06-.03l6.12-3.31c-1-.57-5.65-3.43-6.43-3.52h0Z"/>
      </g>
      <g>
        <path class="cls-12" d="M1463.19,473.48c-.57-.15-2.93-1.58-4.22-2.35-.46-.28-.87-.52-1.19-.71.73-.41,1.47-.82,2.21-1.22,1.08-.59,2.15-1.18,3.21-1.79.92.25,3.99,2.1,5.33,2.91l.18.11c-1.29.73-2.58,1.44-3.88,2.16l-1.65.91Z"/>
        <path d="M1463.25,467.8c.91.32,3.45,1.84,4.72,2.6-1.09.61-2.19,1.22-3.26,1.81-.52.29-1.04.57-1.55.86-.72-.29-2.82-1.56-4-2.27-.22-.13-.43-.26-.63-.38.55-.3,1.09-.6,1.64-.9,1.01-.56,2.06-1.13,3.08-1.72M1463.14,467c-2.02,1.17-4.09,2.26-6.12,3.42.96.5,5.56,3.45,6.22,3.45,0,0,.01,0,.02,0,0,0,.01,0,.02,0,2.06-1.14,4.13-2.26,6.17-3.44-1.08-.64-5.34-3.29-6.32-3.42h0Z"/>
      </g>
      <g>
        <path class="cls-12" d="M1443.15,461.6c-.81-.33-4.55-2.58-5.83-3.45.76-.47,3-1.62,4.04-2.16.45-.23.82-.42,1.04-.54.81.29,2.53,1.35,3.94,2.21.7.43,1.37.84,1.91,1.15-1.23.75-2.53,1.43-3.79,2.09-.44.23-.88.46-1.31.69Z"/>
        <path d="M1442.42,455.86c.81.34,2.41,1.32,3.72,2.12.48.29.95.58,1.37.83-1.05.61-2.14,1.19-3.2,1.75-.39.21-.78.41-1.17.62-.9-.43-3.64-2.07-5.09-3,.98-.57,2.64-1.42,3.48-1.86.36-.18.67-.34.89-.46M1442.36,455.04c-.69.39-5.48,2.77-5.62,3.14.68.56,5.89,3.73,6.46,3.82,1.94-1.04,3.95-2.03,5.8-3.21-1.51-.77-5.38-3.4-6.63-3.74h0Z"/>
      </g>
      <g>
        <path class="cls-12" d="M1476.89,465.67c-.59-.18-3.21-1.71-4.49-2.47-.31-.18-.6-.35-.84-.49,1.09-.58,2.16-1.19,3.21-1.79.76-.44,1.52-.87,2.29-1.29.85.17,3.61,1.87,4.97,2.71.17.1.33.2.47.29l-.04.02c-1.81,1.03-3.69,2.1-5.57,3.03Z"/>
        <path d="M1477.11,460.02c.89.27,3.53,1.89,4.65,2.58-1.6.91-3.24,1.83-4.89,2.66-.76-.31-3.1-1.69-4.28-2.38-.09-.05-.18-.11-.26-.16.89-.48,1.78-.99,2.64-1.48.72-.41,1.43-.82,2.15-1.22M1476.98,459.24c-2.07,1.14-4.11,2.38-6.21,3.46.87.46,5.59,3.36,6.16,3.36,0,0,.01,0,.02,0,2.13-1.05,4.22-2.26,6.29-3.43-1.14-.66-5.24-3.34-6.26-3.39h0Z"/>
      </g>
      <g>
        <path class="cls-12" d="M1515.35,511.99c-.89-.35-2.39-1.29-3.73-2.12-.48-.3-.93-.58-1.33-.82.77-.42,1.53-.85,2.27-1.28,1.13-.65,2.3-1.33,3.49-1.91,1.7.85,3.47,1.89,5.07,2.97-1.11.54-2.19,1.17-3.25,1.77-.84.48-1.67.96-2.52,1.4Z"/>
        <path d="M1516.05,506.28c1.44.73,2.94,1.6,4.33,2.51-.91.47-1.81.99-2.69,1.49-.77.44-1.56.89-2.36,1.31-.88-.38-2.33-1.28-3.51-2.03-.27-.17-.53-.33-.78-.49.58-.32,1.15-.65,1.71-.97,1.07-.62,2.18-1.26,3.3-1.82M1516.05,505.44c-2.24,1.08-4.32,2.45-6.53,3.6,1.48.83,4.49,2.9,5.86,3.37,2.17-1.12,4.27-2.49,6.48-3.51-1.8-1.26-3.84-2.48-5.81-3.45h0Z"/>
      </g>
      <g>
        <path class="cls-12" d="M1497.08,477.17c-1.05-.36-3.24-1.73-4.71-2.66-.21-.13-.42-.26-.6-.38,1.34-.69,3.63-1.91,5.35-3.1,1.82.89,3.85,1.9,5.38,3.14-1.81,1.09-3.66,2.07-5.42,2.99Z"/>
        <path d="M1497.15,471.47c1.58.78,3.3,1.64,4.69,2.67-1.59.94-3.22,1.81-4.78,2.62-1.06-.42-3.17-1.74-4.47-2.56-.02-.01-.03-.02-.05-.03,1.38-.72,3.16-1.71,4.62-2.69M1497.09,470.6c-1.72,1.21-4.19,2.55-6.08,3.5,1.4.84,4.78,3.1,6.11,3.47,2.03-1.06,4.07-2.14,6.02-3.34-1.66-1.48-4.06-2.65-6.05-3.63h0Z"/>
      </g>
      <g>
        <path class="cls-12" d="M1503.29,496.66c-.47-.22-.94-.52-1.41-.81-.21-.13-.42-.26-.62-.38-1.07-.65-2.15-1.29-3.24-1.91l5.57-3.06c.77.21,3.73,2.06,5.23,3.08l-5.53,3.08Z"/>
        <path d="M1503.63,490.9c.79.31,3.01,1.68,4.47,2.64l-4.83,2.69c-.39-.2-.8-.46-1.2-.71-.21-.13-.42-.27-.62-.39-.88-.53-1.77-1.06-2.67-1.58l4.84-2.66M1503.53,490.1l-6.27,3.44c1.28.73,2.55,1.48,3.81,2.24.71.43,1.47.97,2.24,1.29l6.22-3.47c-.91-.65-5.15-3.44-6-3.51h0Z"/>
      </g>
      <g>
        <path class="cls-12" d="M1496.12,500.64c-1.47-.67-3.66-2.03-5.21-3,1.46-.75,2.92-1.56,4.33-2.34l1.35-.75c1.46.56,3.53,1.88,5.06,2.85l.15.09c-1.66.98-3.48,2-5.68,3.15Z"/>
        <path d="M1496.62,494.96c1.3.53,3.05,1.63,4.46,2.52-1.47.86-3.09,1.75-4.97,2.74-1.27-.6-3.03-1.67-4.45-2.56,1.27-.67,2.53-1.36,3.75-2.04.4-.22.8-.44,1.2-.66M1496.56,494.14c-2.13,1.17-4.25,2.37-6.41,3.47,1.61,1.01,4.32,2.73,5.99,3.45,2.15-1.12,4.3-2.3,6.38-3.55-1.61-1.01-4.22-2.75-5.95-3.37h0Z"/>
      </g>
      <g>
        <path class="cls-12" d="M1503.11,480.68c-1.51-.9-3.08-1.82-4.66-2.68,1.63-.83,3.24-1.78,4.79-2.71l.68-.4c1.39.67,2.76,1.52,4.1,2.34.41.25.82.51,1.23.75l-.58.35c-1.58.95-3.22,1.93-4.9,2.73l-.66-.39Z"/>
        <path d="M1503.94,475.32c1.31.64,2.61,1.45,3.88,2.23.24.15.47.29.7.43-.02.01-.04.02-.05.03-1.52.91-3.09,1.85-4.68,2.62l-.5-.3c-1.32-.78-2.66-1.58-4.03-2.33,1.43-.76,2.82-1.59,4.19-2.39l.5-.3M1503.9,474.47c-2.05,1.21-4.13,2.48-6.27,3.52,2.08,1.09,4.09,2.31,6.11,3.5,2.15-1.01,4.19-2.29,6.23-3.5-1.98-1.17-4-2.54-6.08-3.52h0Z"/>
      </g>
      <g>
        <path class="cls-12" d="M1490.39,473.33c-1.25-.56-2.48-1.31-3.67-2.03-.58-.35-1.15-.69-1.72-1.02,1.68-.86,3.34-1.83,4.95-2.78l.5-.29c1.85.84,3.7,1.98,5.33,3.04-.3.18-.6.36-.9.54-1.46.87-2.96,1.77-4.48,2.54Z"/>
        <path d="M1490.46,467.64c1.58.74,3.17,1.69,4.6,2.6-.12.07-.25.15-.37.22-1.4.84-2.85,1.7-4.31,2.46-1.17-.54-2.34-1.25-3.47-1.93-.37-.23-.75-.46-1.14-.68,1.47-.78,2.92-1.63,4.33-2.45l.36-.21M1490.42,466.79c-2.04,1.19-4.11,2.43-6.23,3.47,2.05,1.11,4.08,2.55,6.21,3.48,2.08-1.05,4.08-2.3,6.08-3.48-1.9-1.25-3.99-2.55-6.06-3.48h0Z"/>
      </g>
      <g>
        <path class="cls-12" d="M1510.43,484.96c-.66-.27-3.47-1.99-4.71-2.75-.2-.12-.38-.23-.54-.33.94-.51,1.88-1.04,2.82-1.57.88-.5,1.77-1,2.65-1.48.64.21,3.82,2.13,5.31,3.07l-5.53,3.06Z"/>
        <path d="M1510.67,479.25c.78.34,3.08,1.72,4.55,2.63l-4.81,2.66c-.84-.41-3.33-1.94-4.48-2.64.76-.42,1.51-.84,2.25-1.26.83-.47,1.66-.93,2.49-1.39M1510.59,478.44h0c-2.06,1.13-4.09,2.32-6.16,3.43.76.44,5.62,3.49,6.05,3.5l6.22-3.43c-.74-.49-5.55-3.49-6.1-3.49h0Z"/>
      </g>
      <g>
        <path class="cls-12" d="M1469.67,477.3c-1.73-.96-3.47-1.95-5.18-2.96,1.44-.7,2.86-1.53,4.23-2.34.47-.28.94-.55,1.41-.82.95.4,2.82,1.55,4.2,2.39.36.22.69.43.99.61-1.88,1.08-3.73,2.13-5.65,3.12Z"/>
        <path d="M1470.15,471.61c.96.44,2.68,1.5,3.97,2.29.16.1.31.19.45.28-1.63.94-3.25,1.84-4.9,2.7-1.47-.81-2.95-1.65-4.4-2.51,1.23-.63,2.44-1.34,3.63-2.04.42-.25.83-.49,1.25-.73M1470.1,470.77c-2.09,1.19-4.22,2.54-6.41,3.54,1.97,1.17,3.96,2.31,5.97,3.42,2.16-1.11,4.29-2.32,6.39-3.54-1.4-.81-4.67-2.95-5.96-3.42h0Z"/>
      </g>
      <g>
        <path class="cls-12" d="M1543.76,496.6c-1.7-1.03-3.43-2.06-5.16-3.06l5.67-3.07c1.05.71,2.19,1.32,3.3,1.91.64.34,1.29.69,1.93,1.06-.7.39-1.4.77-2.11,1.15-1.2.65-2.43,1.32-3.63,2.01Z"/>
        <path d="M1544.26,490.91c1.01.67,2.09,1.24,3.14,1.8.44.24.89.48,1.33.72-.51.28-1.02.56-1.53.83-1.13.61-2.3,1.24-3.44,1.9-1.45-.88-2.92-1.75-4.39-2.61l4.89-2.65M1544.3,490.03l-6.46,3.5c1.98,1.15,3.96,2.32,5.92,3.5,2.14-1.25,4.34-2.37,6.5-3.59-1.94-1.19-4.09-2.12-5.95-3.42h0Z"/>
      </g>
      <g>
        <path class="cls-12" d="M1524,485.07c-.86-.31-3.58-2.09-4.92-2.96-.09-.06-.18-.12-.26-.17.9-.47,1.79-.96,2.66-1.45.92-.51,1.83-1.02,2.76-1.5,1.1.55,2.19,1.17,3.24,1.76.71.4,1.41.8,2.12,1.18-1.41.86-2.88,1.66-4.32,2.44l-1.28.7Z"/>
        <path d="M1524.24,479.41c1.03.52,2.06,1.1,3.05,1.66.51.29,1.03.58,1.56.87-1.23.73-2.5,1.42-3.74,2.09-.38.21-.75.41-1.13.62-.88-.39-3.28-1.94-4.42-2.69.71-.38,1.42-.77,2.11-1.16.84-.47,1.71-.95,2.58-1.4M1524.24,478.57c-2.08,1.06-4.08,2.28-6.17,3.33,1.06.67,5.07,3.37,5.98,3.58,2.11-1.16,4.27-2.29,6.31-3.57-2.06-1.07-4.04-2.31-6.12-3.34h0Z"/>
      </g>
      <g>
        <path class="cls-12" d="M1483.4,485c-.68-.17-3.53-1.87-4.78-2.61-.25-.15-.48-.29-.68-.4,1.21-.77,2.53-1.46,3.81-2.13.51-.27,1.03-.54,1.53-.81.89.08,4,1.96,5.45,2.93-1.77,1.02-3.54,2.03-5.32,3.03Z"/>
        <path d="M1483.34,479.43c.75.17,3.11,1.52,4.66,2.52-1.54.89-3.1,1.77-4.65,2.64-.83-.32-3.41-1.84-4.55-2.53-.05-.03-.1-.06-.14-.09,1.06-.64,2.17-1.22,3.26-1.8.48-.25.95-.5,1.42-.75M1483.23,478.66s-.03,0-.05,0c-1.98,1.08-4.09,2.09-5.96,3.34.95.52,5.54,3.38,6.25,3.38h0c1.99-1.11,3.97-2.24,5.95-3.39-.9-.66-5.11-3.34-6.19-3.34h0Z"/>
      </g>
      <g>
        <path class="cls-12" d="M1503.93,473.31c-.46-.2-.94-.5-1.4-.8-.18-.12-.36-.23-.53-.33l-.68-.42c-.88-.54-1.79-1.09-2.71-1.61,1.26-.77,2.59-1.47,3.89-2.15.5-.27,1.01-.53,1.51-.8,1.29.52,2.93,1.56,4.39,2.48.34.21.66.42.96.61-1.65,1.02-3.47,2.03-5.43,3.02Z"/>
        <path d="M1504.03,467.62c1.23.53,2.78,1.51,4.16,2.38.15.1.3.19.45.29-1.46.88-3.04,1.75-4.72,2.6-.39-.18-.79-.44-1.18-.69-.18-.12-.37-.23-.54-.34l-.65-.4c-.71-.44-1.44-.88-2.19-1.31,1.08-.63,2.21-1.23,3.31-1.8.46-.24.91-.48,1.36-.72M1503.98,466.79c-2.03,1.1-4.17,2.14-6.12,3.38,1.35.71,2.64,1.53,3.94,2.32.67.41,1.41.95,2.14,1.22,2.06-1.03,4.18-2.2,6.13-3.43-1.71-1.02-4.27-2.8-6.09-3.5h0Z"/>
      </g>
      <g>
        <path class="cls-12" d="M1508.95,508.2c-.69-.24-3.35-1.86-4.53-2.58-.17-.1-.33-.2-.47-.29l.48-.26c1.75-.95,3.56-1.93,5.28-3,.82.26,1.98,1,3.1,1.72.69.44,1.35.86,1.95,1.19-1,.54-1.99,1.09-2.98,1.65-.94.53-1.88,1.06-2.83,1.57Z"/>
        <path d="M1509.75,502.48c.77.29,1.87.99,2.85,1.62.48.3.94.6,1.38.87-.81.44-1.61.89-2.39,1.33-.89.5-1.78,1-2.68,1.49-.81-.35-3.1-1.75-4.22-2.43,1.67-.91,3.4-1.85,5.05-2.87M1509.65,501.67c-2.09,1.31-4.29,2.47-6.46,3.65.94.55,5.11,3.19,5.8,3.28,2.2-1.19,4.37-2.46,6.58-3.63-1.7-.75-4.39-2.91-5.93-3.3h0Z"/>
      </g>
      <g>
        <path class="cls-12" d="M1490.15,481.04c-.68-.22-3.81-2.04-5.02-2.74-.11-.06-.21-.12-.31-.18,1.22-.64,2.44-1.34,3.62-2.02.62-.35,1.23-.71,1.85-1.05.73.16,3.96,2.11,5.05,2.77.11.07.21.13.31.19-1.92,1.17-3.92,2.22-5.5,3.04Z"/>
        <path d="M1490.33,475.45c.84.29,3.44,1.85,4.59,2.55-1.68.99-3.39,1.9-4.79,2.63-.81-.34-3.29-1.77-4.54-2.49,1.02-.55,2.04-1.13,3.02-1.7.57-.33,1.14-.66,1.71-.98M1490.22,474.66s0,0,0,0c-2.05,1.14-4.08,2.38-6.17,3.44.71.39,5.64,3.33,6.16,3.33,0,0,0,0,0,0,2.08-1.07,4.19-2.2,6.17-3.43-.95-.55-5.38-3.33-6.16-3.33h0Z"/>
      </g>
      <g>
        <path class="cls-12" d="M1483.54,469.46c-.62-.2-2.86-1.56-4.1-2.31-.42-.25-.79-.48-1.1-.66,1.16-.68,2.36-1.33,3.52-1.97.68-.37,1.36-.75,2.04-1.12.69.14,3.46,1.85,4.68,2.59.2.12.38.23.53.33-1.52.94-3.13,1.82-4.69,2.66l-.88.48Z"/>
        <path d="M1483.94,463.81c.84.29,3.42,1.88,4.44,2.51,0,0,0,0,.01,0-1.35.82-2.77,1.58-4.14,2.33l-.73.4c-.74-.32-2.75-1.53-3.88-2.22-.2-.12-.38-.23-.56-.34.98-.56,1.98-1.11,2.96-1.64.64-.35,1.27-.69,1.9-1.05M1483.82,463.02s0,0,0,0c-2.07,1.16-4.19,2.26-6.22,3.48,1,.54,5.29,3.29,6,3.37,2.09-1.14,4.23-2.26,6.23-3.55-1.01-.59-5.2-3.3-6-3.3h0Z"/>
      </g>
      <g>
        <path class="cls-12" d="M1503.58,488.84c-.68-.21-2.86-1.56-4.19-2.39-.42-.26-.8-.5-1.11-.69,1.8-1.01,3.62-2.01,5.43-3,.82.28,3.27,1.81,4.62,2.65.25.15.47.29.67.42-1.42.83-2.89,1.63-4.31,2.41l-1.11.61Z"/>
        <path d="M1503.74,483.17c.89.37,3.3,1.87,4.38,2.55.05.03.1.06.15.09-1.24.72-2.51,1.4-3.74,2.08l-.99.54c-.77-.32-2.88-1.63-3.95-2.3-.2-.13-.4-.25-.58-.36,1.57-.88,3.15-1.75,4.72-2.61M1503.66,482.36c-2.06,1.12-4.1,2.25-6.14,3.4,1.09.6,5.26,3.37,6.11,3.48,2.04-1.12,4.1-2.21,6.1-3.41-1.17-.69-5.13-3.28-6.07-3.47h0Z"/>
      </g>
      <g>
        <path class="cls-12" d="M1522.78,508.01c-1.4-.66-2.79-1.48-4.13-2.28-.36-.22-.72-.43-1.08-.64l5.59-3.12c1.09.4,3.82,2.13,5.13,3.07-1.82,1-3.67,2.01-5.51,2.98Z"/>
        <path d="M1523.18,502.37c.97.41,3.05,1.69,4.4,2.61-1.59.88-3.21,1.75-4.81,2.6-1.33-.64-2.65-1.42-3.93-2.19-.17-.1-.35-.21-.52-.31l4.86-2.72M1523.12,501.55l-6.31,3.52c1.96,1.13,3.93,2.41,5.98,3.35,2.07-1.1,4.14-2.22,6.19-3.35-1.02-.8-4.68-3.17-5.87-3.52h0Z"/>
      </g>
      <g>
        <path class="cls-12" d="M1456.56,461.93c-1.44-.62-2.88-1.52-4.27-2.38-.37-.23-.74-.46-1.11-.69,1.75-1.03,3.55-2.03,5.35-2.99,1.42.72,2.83,1.54,4.2,2.35.41.24.83.48,1.24.72-.88.5-1.76.99-2.65,1.47-.92.5-1.84,1-2.75,1.52Z"/>
        <path d="M1456.53,456.3c1.35.69,2.69,1.48,4,2.24.23.13.45.26.68.4-.69.39-1.39.77-2.07,1.14-.85.47-1.73.94-2.6,1.44-1.36-.61-2.73-1.46-4.06-2.29-.19-.12-.39-.24-.58-.36,1.52-.88,3.07-1.75,4.62-2.57M1456.52,455.45c-2.05,1.09-4.08,2.23-6.08,3.41,1.97,1.16,4.04,2.61,6.15,3.49,2.02-1.17,4.11-2.23,6.12-3.41-2.04-1.17-4.09-2.44-6.19-3.49h0Z"/>
      </g>
      <g>
        <path class="cls-12" d="M1529.81,504.18c-.47-.18-2.21-1.2-5.19-3.03,1.16-.58,2.31-1.23,3.43-1.85.69-.39,1.38-.77,2.06-1.14.47.07,2.22,1.08,5.18,3l.06.04c-1.27.78-2.64,1.48-3.96,2.16-.53.28-1.06.55-1.58.83Z"/>
        <path d="M1530.16,498.56c.57.19,2.08,1.07,4.49,2.62-1.11.65-2.29,1.26-3.43,1.85-.48.25-.95.49-1.42.74-.57-.27-2.05-1.14-4.41-2.58.97-.5,1.92-1.04,2.85-1.56.64-.36,1.28-.72,1.92-1.07M1530.06,497.78s-.02,0-.04,0c-2.05,1.1-4.08,2.34-6.18,3.34.78.47,5.57,3.46,6,3.46,0,0,0,0,0,0,.01,0,.03,0,.04-.01,2.05-1.09,4.22-2.12,6.17-3.37-.88-.55-5.18-3.42-6-3.42h0Z"/>
      </g>
      <g>
        <path class="cls-12" d="M1449.9,465.64c-.66-.24-3.68-2.06-5-2.86-.17-.11-.33-.2-.47-.29.48-.27.97-.55,1.45-.82,1.22-.69,2.47-1.41,3.74-2.05.75.19,3.94,2.15,5.18,2.9.13.08.26.16.37.23-1.74.98-3.5,1.95-5.27,2.88Z"/>
        <path d="M1449.65,460.03c.86.32,3.54,1.95,4.78,2.71-1.51.85-3.03,1.68-4.55,2.48-.85-.38-3.53-2.01-4.71-2.72.3-.17.59-.34.89-.51,1.17-.66,2.37-1.35,3.59-1.97M1449.56,459.24c-2,1-3.92,2.16-5.88,3.24.81.47,5.76,3.56,6.26,3.56,0,0,.01,0,.02,0,2-1.06,3.99-2.15,5.95-3.27-1-.59-5.55-3.48-6.35-3.53h0Z"/>
      </g>
      <g>
        <path class="cls-12" d="M1509.9,500.43c-.88-.26-3.36-1.8-4.73-2.65-.18-.11-.34-.21-.49-.31,2.05-1.07,3.86-2.08,5.51-3.08.35.09,1.49.61,5.23,2.93l-1.09.63c-1.44.83-2.93,1.7-4.42,2.48Z"/>
        <path d="M1510.24,494.8c.42.16,1.53.71,4.45,2.51-.19.11-.37.22-.56.32-1.39.81-2.82,1.64-4.26,2.39-.91-.34-3.22-1.77-4.43-2.52,1.76-.93,3.34-1.82,4.8-2.7M1510.12,494c-2,1.23-4.11,2.38-6.2,3.45,1.15.67,5,3.18,6.04,3.38,2.1-1.09,4.14-2.32,6.2-3.5-.93-.58-5.22-3.29-6.03-3.33h0Z"/>
      </g>
      <g>
        <path class="cls-12" d="M1516.32,504.26c-.8-.24-2.86-1.55-4.24-2.44-.31-.2-.59-.38-.84-.54.89-.46,1.76-.97,2.61-1.46.94-.55,1.92-1.12,2.91-1.62,1.17.46,2.76,1.45,4.16,2.32.35.22.69.43,1,.62-1.12.71-2.33,1.35-3.51,1.98-.7.37-1.4.75-2.08,1.13Z"/>
        <path d="M1516.77,498.61c1.13.47,2.68,1.44,3.95,2.23.16.1.32.2.48.3-.96.58-1.98,1.12-2.98,1.65-.64.34-1.3.69-1.93,1.05-.84-.32-2.87-1.62-4.01-2.35-.1-.06-.2-.13-.3-.19.7-.38,1.38-.78,2.05-1.17.89-.52,1.81-1.05,2.74-1.53M1516.73,497.79c-2.14,1.07-4.13,2.41-6.26,3.46,1.22.71,4.86,3.22,5.91,3.4,2.04-1.16,4.29-2.22,6.24-3.52-1.63-.95-4.21-2.74-5.89-3.34h0Z"/>
      </g>
      <g>
        <path class="cls-12" d="M1477.23,457.94c-1.71-.99-3.42-1.97-5.15-2.94,1.83-.93,3.63-1.96,5.38-2.96l.27-.15c.63.37,1.27.73,1.92,1.09,1.06.59,2.15,1.19,3.17,1.87-1.86,1.05-3.73,2.09-5.59,3.09Z"/>
        <path d="M1477.72,452.33c.58.34,1.17.67,1.74.99.87.48,1.77.98,2.62,1.52-1.61.91-3.24,1.81-4.86,2.69-1.44-.84-2.91-1.67-4.36-2.49,1.62-.85,3.22-1.76,4.78-2.65l.08-.04M1477.73,451.46c-2.12,1.21-4.26,2.45-6.45,3.53,1.99,1.11,3.97,2.24,5.94,3.39,2.11-1.14,4.22-2.31,6.3-3.49-1.83-1.29-3.87-2.27-5.79-3.42h0Z"/>
      </g>
      <g>
        <path class="cls-12" d="M1509.47,476.51c-1.33-.77-2.71-1.57-4.03-2.41.48-.26.96-.53,1.43-.8,1.27-.71,2.59-1.44,3.93-2.09,1.71.89,3.38,1.86,5.3,3.02-1.24.8-2.61,1.52-3.93,2.21-.5.26-1,.52-1.49.79l-1.22-.71Z"/>
        <path d="M1510.79,471.63c1.49.79,2.96,1.63,4.59,2.6-1.09.67-2.25,1.27-3.38,1.87-.44.23-.88.46-1.31.69-.34-.2-.68-.4-1.02-.59-1.16-.67-2.34-1.36-3.5-2.08.29-.16.59-.33.88-.49,1.21-.68,2.47-1.38,3.74-2M1510.81,470.79c-2.09,1-4.07,2.18-6.11,3.28,1.95,1.26,3.98,2.4,5.98,3.58,2.03-1.1,4.22-2.13,6.12-3.44-1.97-1.19-3.96-2.36-6-3.42h0Z"/>
      </g>
      <g>
        <path class="cls-12" d="M1517.45,481.08c-.67-.27-3.62-2.01-4.91-2.78-.17-.1-.32-.19-.45-.26l.51-.29c1.57-.88,3.19-1.79,4.81-2.63,1.57.62,3.12,1.58,4.62,2.51.28.17.55.34.83.51-1.3.67-2.59,1.38-3.84,2.07-.52.29-1.04.58-1.57.86Z"/>
        <path d="M1517.43,475.53c1.48.61,2.97,1.53,4.41,2.42.09.05.18.11.26.16-1.1.58-2.2,1.18-3.26,1.77-.47.26-.93.52-1.4.77-.85-.41-3.44-1.93-4.6-2.61,1.5-.84,3.04-1.71,4.59-2.52M1517.39,474.71c-2.05,1.05-4.05,2.2-6.06,3.33.63.35,5.77,3.45,6.16,3.45,0,0,0,0,0,0,2.04-1.11,4.06-2.27,6.14-3.31-1.98-1.18-4.09-2.64-6.24-3.46h0Z"/>
      </g>
      <g>
        <path class="cls-12" d="M1497.14,469.35c-.47-.11-3.42-1.89-4.69-2.65-.23-.14-.43-.26-.61-.37,1.73-1.04,3.51-2,5.24-2.94.77.17,4.12,2.17,5.25,2.85.09.06.18.11.27.16l-5.33,2.92s-.13.03-.13.03Z"/>
        <path d="M1497.12,463.8c.85.3,3.49,1.85,4.73,2.59l-4.7,2.57c-.7-.29-3.35-1.88-4.51-2.58-.02-.01-.04-.02-.06-.04,1.53-.9,3.11-1.76,4.55-2.53M1497.01,463c-1.98,1.07-3.98,2.15-5.89,3.33.79.45,5.37,3.3,5.98,3.39.01,0,.03,0,.04,0,.09,0,.18-.04.27-.05l5.96-3.26c-.99-.57-5.55-3.39-6.36-3.41h0Z"/>
      </g>
      <g>
        <path class="cls-12" d="M1510.34,492.65c-1.2-.51-2.8-1.5-4.22-2.37-.38-.24-.75-.46-1.1-.67,1.8-.98,3.6-1.97,5.38-2.98.69.27,3.12,1.74,4.46,2.56.34.21.65.4.91.55-1.74.98-3.58,1.99-5.44,2.91Z"/>
        <path d="M1510.43,487.06c.83.39,3.1,1.76,4.25,2.46.12.07.24.15.35.22-1.52.85-3.1,1.71-4.7,2.5-1.15-.52-2.66-1.45-4.01-2.27-.19-.11-.37-.23-.55-.33,1.55-.85,3.11-1.71,4.65-2.58M1510.37,486.23c-2.02,1.14-4.06,2.26-6.1,3.37,1.71.99,4.35,2.75,6.09,3.46,2.09-1.02,4.15-2.17,6.18-3.31-.98-.55-5.45-3.37-6.17-3.52h0Z"/>
      </g>
      <g>
        <path class="cls-12" d="M1470.05,469.55c-1.09-.45-2.9-1.55-4.37-2.43-.34-.21-.67-.4-.96-.58,1.78-.97,3.59-1.98,5.37-3,1.62.78,3.2,1.72,4.74,2.63l.62.36-5.39,3.02Z"/>
        <path d="M1470.11,463.96c1.54.76,3.06,1.66,4.54,2.53.02.01.04.02.05.03l-4.66,2.61c-1.08-.48-2.77-1.5-4.16-2.34-.14-.08-.27-.16-.4-.24,1.55-.85,3.1-1.72,4.63-2.59M1470.08,463.12c-2.03,1.16-4.07,2.29-6.12,3.41,1.55.89,4.62,2.87,6.13,3.44l6.12-3.43c-2.01-1.17-4.02-2.42-6.12-3.42h0Z"/>
      </g>
      <g>
        <path class="cls-12" d="M1476.71,473.37c-.79-.23-3.59-2.01-4.82-2.79-.14-.09-.27-.17-.39-.25,1.76-.96,3.55-1.95,5.25-3,2.14,1.06,3.87,2.02,5.36,2.99-1.67,1-3.41,1.96-5.09,2.89l-.3.17Z"/>
        <path d="M1476.76,467.75c1.8.9,3.31,1.72,4.62,2.55-1.51.89-3.07,1.75-4.58,2.59l-.13.07c-.86-.34-3.31-1.89-4.44-2.61,1.52-.83,3.05-1.69,4.53-2.6M1476.72,466.89c-1.93,1.21-3.97,2.32-5.97,3.41,1.02.62,5.15,3.35,6.02,3.46,2.02-1.12,4.06-2.24,6.03-3.44-1.91-1.29-4.01-2.41-6.08-3.43h0Z"/>
      </g>
      <g>
        <path class="cls-12" d="M1489.91,488.73c-.25-.08-1.27-.51-5.22-2.92l5.38-3.01c1.25.52,2.58,1.31,3.87,2.08.5.3,1,.59,1.48.87-1.16.6-2.32,1.24-3.45,1.86-.69.38-1.37.76-2.06,1.13Z"/>
        <path d="M1490.09,483.21c1.18.51,2.44,1.26,3.66,1.99.3.18.6.35.9.53-.96.5-1.92,1.03-2.85,1.54-.64.35-1.27.7-1.91,1.04-.36-.15-1.44-.68-4.45-2.5l4.65-2.61M1490.04,482.38l-6.09,3.41c.77.47,5.41,3.33,6.01,3.33,0,0,.01,0,.02,0,2.08-1.11,4.14-2.31,6.24-3.36-1.96-1.06-4.16-2.57-6.18-3.38h0Z"/>
      </g>
      <g>
        <path class="cls-12" d="M1516.75,496.58c-.94-.86-2.78-1.85-4.27-2.66-.25-.14-.49-.27-.72-.39,1.32-.71,2.62-1.45,3.92-2.18l1.49-.84c1.18.43,3.12,1.64,4.56,2.54.25.15.49.3.71.44-1.49.77-2.97,1.58-4.4,2.38l-1.29.71Z"/>
        <path d="M1517.21,490.92c1.15.46,2.97,1.59,4.32,2.43.05.03.1.06.16.1-1.29.68-2.57,1.38-3.82,2.07-.36.2-.71.39-1.07.59-1.02-.84-2.73-1.77-4.14-2.53-.04-.02-.08-.04-.11-.06,1.12-.61,2.24-1.24,3.32-1.85.44-.25.89-.5,1.33-.75M1517.14,490.1c-2.05,1.15-4.08,2.32-6.16,3.42,1.46.85,4.6,2.37,5.69,3.5l.15-.06c2.12-1.16,4.23-2.36,6.38-3.45-1.56-.93-4.5-2.9-6.07-3.41h0Z"/>
      </g>
      <g>
        <path class="cls-12" d="M1463.34,465.69c-.84-.29-3.41-1.78-4.83-2.6-.22-.12-.42-.24-.6-.34,1.81-.99,3.62-2,5.42-3.01.96.35,3.12,1.66,4.57,2.53.29.17.55.33.79.48-1.05.67-2.2,1.27-3.31,1.85-.69.36-1.37.72-2.04,1.1Z"/>
        <path d="M1463.36,460.15c1,.42,3.07,1.67,4.36,2.45.09.05.17.1.25.15-.89.54-1.84,1.03-2.76,1.51-.63.33-1.27.67-1.9,1.02-.92-.38-3.37-1.8-4.62-2.51,0,0-.01,0-.02,0,1.56-.86,3.14-1.73,4.69-2.61M1463.29,459.33c-2.04,1.16-4.09,2.29-6.16,3.42,1.11.61,5.33,3.14,6.25,3.35,1.97-1.13,4.14-2.09,6.01-3.37-1.31-.76-4.89-3.04-6.1-3.4h0Z"/>
      </g>
      <g>
        <path class="cls-12" d="M1483.87,461.69c-1.75-.96-3.5-1.95-5.2-2.95.76-.42,1.52-.85,2.28-1.28,1.06-.6,2.16-1.23,3.26-1.8,1.17.47,3.55,2.01,4.95,2.99-1.39.92-4.4,2.77-5.29,3.04Z"/>
        <path d="M1484.22,456.08c1.06.47,2.93,1.66,4.26,2.57-1.46.94-3.75,2.32-4.58,2.64-1.5-.82-3-1.67-4.48-2.53.58-.32,1.15-.65,1.71-.97,1.01-.57,2.05-1.16,3.09-1.71M1484.18,455.25c-2.12,1.1-4.16,2.35-6.27,3.48,1.95,1.16,3.92,2.28,5.91,3.36.92-.15,5.03-2.76,6-3.43-1.23-.89-4.3-2.94-5.63-3.41h0Z"/>
      </g>
      <g>
        <path class="cls-12" d="M1523.87,492.61c-.46-.19-.93-.47-1.38-.75-.21-.13-.43-.26-.63-.38l-3.29-1.84c1.11-.58,2.21-1.2,3.28-1.8.71-.4,1.43-.8,2.15-1.19,1.79,1.01,3.57,2.04,5.35,3.08-1.5.82-3.04,1.62-4.53,2.39l-.94.49Z"/>
        <path d="M1523.99,487.08c1.53.87,3.07,1.75,4.59,2.64-1.3.7-2.63,1.39-3.92,2.06l-.8.41c-.39-.18-.79-.42-1.18-.66-.22-.13-.43-.26-.64-.38l-2.69-1.5c.91-.49,1.81-.99,2.68-1.48.65-.36,1.3-.73,1.95-1.08M1524,486.23c-2.08,1.13-4.12,2.32-6.22,3.4l3.9,2.17c.7.4,1.46.94,2.22,1.22,2.07-1.08,4.17-2.14,6.21-3.28-2.03-1.19-4.06-2.36-6.1-3.52h0Z"/>
      </g>
      <g>
        <path class="cls-12" d="M1530.25,496.53c-1.08-.7-2.2-1.35-3.29-1.99-.6-.35-1.2-.7-1.79-1.05,1.86-1,3.73-1.98,5.6-2.95,1.68.88,3.35,1.92,4.96,2.92l.06.04c-1.69.99-3.61,2.07-5.56,3.03Z"/>
        <path d="M1530.78,490.96c1.45.77,2.9,1.65,4.3,2.52-1.72.99-3.25,1.84-4.8,2.61-1.02-.66-2.08-1.28-3.11-1.87-.4-.23-.81-.47-1.22-.72,1.61-.86,3.23-1.71,4.84-2.55M1530.78,490.12c-2.13,1.1-4.25,2.22-6.36,3.35,1.92,1.18,3.92,2.25,5.8,3.49,2.15-1.04,4.25-2.25,6.31-3.45-1.88-1.16-3.79-2.37-5.75-3.39h0Z"/>
      </g>
      <g>
        <path class="cls-12" d="M1537.3,492.64c-.65-.21-3.6-2-4.73-2.69-.14-.08-.27-.16-.38-.23l.48-.27c1.65-.93,3.35-1.89,5.06-2.71.9.3,2.65,1.38,4.06,2.25.4.25.77.48,1.1.67-1.51.97-3.39,1.98-5.59,2.98Z"/>
        <path d="M1537.75,487.14c.9.34,2.58,1.38,3.84,2.16.2.13.4.25.58.36-1.37.84-2.98,1.69-4.89,2.57-.78-.33-3.23-1.82-4.36-2.51,1.57-.89,3.19-1.8,4.82-2.59M1537.7,486.33c-2.13,1.02-4.2,2.22-6.25,3.37.88.51,5.35,3.33,5.91,3.33,2.09-.96,4.34-2.11,6.25-3.39-1.41-.8-4.62-2.96-5.9-3.3h0Z"/>
      </g>
      <g>
        <path class="cls-12" d="M1536.77,500.35c-.75-.2-2.93-1.6-4.26-2.46-.31-.2-.59-.38-.84-.54,1.33-.65,2.64-1.4,3.92-2.13.53-.31,1.07-.61,1.6-.91.75.3,3.41,2.02,4.59,2.79.16.1.31.2.44.29-1.81,1-3.63,1.98-5.46,2.96Z"/>
        <path d="M1537.21,494.74c.85.41,3.23,1.94,4.29,2.63-1.58.87-3.18,1.73-4.77,2.58-.8-.3-2.94-1.68-4.03-2.37-.09-.06-.18-.12-.27-.18,1.14-.58,2.26-1.23,3.36-1.85.47-.27.95-.54,1.42-.81M1537.15,493.91c-2.06,1.14-4.13,2.42-6.26,3.4,1.18.69,4.96,3.31,5.94,3.43,2.05-1.1,4.1-2.21,6.13-3.33-.94-.58-5.07-3.34-5.81-3.5h0Z"/>
      </g>
      <g>
        <path class="cls-12" d="M1456.52,469.52c-.71-.25-4.03-2.26-5.16-2.93l-.11-.07c1.74-.96,3.47-1.96,5.17-2.97.95.53,1.91,1.06,2.87,1.58.87.47,1.73.94,2.59,1.43-1.75,1.06-3.6,2.04-5.35,2.97Z"/>
        <path d="M1456.42,463.98c.9.5,1.8.99,2.7,1.48.67.37,1.34.73,2.01,1.1-1.52.9-3.1,1.74-4.62,2.54-.58-.26-2.09-1.12-4.51-2.57,1.48-.83,2.97-1.68,4.42-2.55M1456.41,463.11c-1.95,1.17-3.92,2.3-5.91,3.39.73.43,5.59,3.41,6.07,3.41,0,0,0,0,.01,0,2.03-1.06,4.09-2.16,6.04-3.37-2.06-1.16-4.15-2.26-6.2-3.42h0Z"/>
      </g>
      <g>
        <path class="cls-12" d="M1490.44,465.52c-.69-.24-3.7-2.11-4.86-2.83-.1-.07-.2-.13-.29-.18l.62-.35c1.5-.85,3.05-1.74,4.61-2.55.74.11,3.97,2.09,5.05,2.75.08.05.16.1.23.14-1.32.81-2.7,1.57-4.04,2.3-.44.24-.88.48-1.31.72Z"/>
        <path d="M1490.56,460.01c.8.25,3.32,1.76,4.51,2.49-1.16.69-2.35,1.35-3.52,1.98-.38.21-.76.41-1.14.62-.82-.37-3.26-1.87-4.4-2.58l.08-.05c1.45-.83,2.96-1.68,4.46-2.47M1490.46,459.23s-.02,0-.02,0c-1.99,1.03-3.93,2.16-5.89,3.27.78.46,5.41,3.42,5.95,3.42,0,0,0,0,0,0,2.01-1.11,4.07-2.19,6.01-3.42-.96-.57-5.2-3.26-6.05-3.26h0Z"/>
      </g>
      <g>
        <path class="cls-12" d="M1523.27,500.29c-.61-.22-2.48-1.37-3.75-2.14-.51-.31-.97-.6-1.35-.82.85-.45,1.7-.91,2.54-1.37.98-.53,1.96-1.07,2.95-1.59.7.18,3.6,2,4.72,2.71.13.08.25.15.36.22-1.83.99-3.65,1.98-5.47,2.98Z"/>
        <path d="M1523.7,494.79c.8.31,3.17,1.79,4.3,2.5-1.58.86-3.18,1.72-4.75,2.59-.71-.32-2.51-1.42-3.53-2.04-.28-.17-.54-.33-.78-.48.66-.35,1.32-.71,1.96-1.06.92-.5,1.86-1.01,2.8-1.5M1523.6,493.99c-2.09,1.08-4.13,2.25-6.21,3.33,1.07.56,5.14,3.23,5.92,3.38,2.05-1.13,4.11-2.25,6.18-3.36-.96-.57-5.16-3.32-5.89-3.34h0Z"/>
      </g>
    </g>
    <path class="cls-7" d="M1449.24,481.5c.25-.01.51-.03.76,0,.71.1,1.46.48,2.09.82,3.75,2.01,7.34,4.39,11.04,6.5l11.82,6.64c2.14,1.18,4.31,2.31,6.42,3.54.48.28,1.21.63,1.51,1.11.24.38.19.69.11,1.1-.29.37-.63.61-1.03.86-2.1,1.28-4.38,2.35-6.54,3.53-2.53,1.38-5.05,2.93-7.66,4.13-.47.22-.94.33-1.44.43-.51.08-1.13.14-1.64-.02-.91-.28-1.83-.94-2.66-1.41-2.29-1.3-4.54-2.66-6.81-3.98l-13.47-7.8c-2.56-1.48-5.21-2.89-7.7-4.47-.51-.32-1.14-.7-1.44-1.24-.04-.28-.04-.43.12-.68.12-.18.33-.34.51-.46,3.09-1.97,6.46-3.64,9.68-5.39,1.62-.88,3.17-1.91,4.83-2.72.49-.24.96-.39,1.5-.5Z"/>
    <path class="cls-7" d="M1474.89,430.05c2.72-2.18,5.22-4.76,7.77-7.15l10.63-9.81c9.37-8.67,18.81-17.25,28.34-25.74,3.1,1.94,6.37,3.62,9.54,5.45l15.88,8.92c-1.81,1.86-3.78,3.59-5.69,5.35-3.11,2.88-6.24,5.75-9.38,8.59-5.61,5.12-11.06,10.43-16.73,15.5-4.14,3.65-8.18,7.41-12.12,11.28-1,.98-2.77,2.47-3.58,3.53-2.1-1.11-4.08-2.43-6.14-3.6-3.27-1.86-6.64-3.61-9.8-5.66-2.92-1.55-5.74-3.27-8.69-4.77l-.02-1.9Z"/>
    <path class="cls-7" d="M1547.05,401.72c5.19,2.76,10.23,5.8,15.35,8.68l6.45,3.62c.97.54,2.04,1.04,2.96,1.65-1.33,1.02-2.57,2.26-3.81,3.39l-7.48,6.8c-9.62,8.69-19.17,17.45-28.65,26.28-1.83,1.68-3.68,3.34-5.56,4.98-.91.8-2.12,1.65-2.82,2.63-2.51-1.27-4.94-2.83-7.37-4.25-5.49-3.21-10.97-6.51-16.57-9.51.8-1.06,2.58-2.56,3.58-3.53,3.94-3.87,7.98-7.63,12.12-11.28,5.66-5.07,11.12-10.38,16.73-15.5,3.15-2.84,6.27-5.71,9.38-8.59,1.91-1.76,3.89-3.49,5.69-5.35Z"/>
    <path class="cls-7" d="M1502.69,376.63c2.03,1.3,4.22,2.39,6.33,3.56,2.47,1.38,4.9,2.84,7.38,4.22,1.6.89,3.84,1.83,5.23,2.93-9.52,8.5-18.97,17.08-28.34,25.74l-10.63,9.81c-2.55,2.39-5.05,4.96-7.77,7.15-.23-3.33,0-6.78.02-10.12l.11-18.21c1.68-1.71,3.49-3.32,5.24-4.96,3.96-3.69,7.95-7.33,11.99-10.93,3.47-3.1,6.7-6.38,10.43-9.19Z"/>
    <path class="cls-7" d="M1523.49,459.73c.7-.98,1.91-1.82,2.82-2.63,1.87-1.64,3.72-3.3,5.56-4.98,9.48-8.83,19.03-17.59,28.65-26.28l7.48-6.8c1.25-1.13,2.48-2.37,3.81-3.39l3.21,1.72c-.03,6.02.08,12.05-.05,18.07-.7.9-1.64,1.66-2.48,2.44l-4.21,3.86-12.12,11.13-10.32,9.6c-2.24,2.09-4.55,4.39-7.07,6.14-5.17-2.82-10.15-6.01-15.29-8.89Z"/>
    <path class="cls-7" d="M1538.77,468.62c2.52-1.75,4.83-4.05,7.07-6.14l10.32-9.6,12.12-11.13,4.21-3.86c.84-.77,1.78-1.54,2.48-2.44-.15,9.63-.16,19.26-.03,28.89.02,2.03.18,4.22-.03,6.23-2.01,1.51-3.8,3.46-5.65,5.18-2.1,1.95-4.41,3.85-6.35,5.95-.18.2-.29.4-.4.65-1.38-.76-2.76-1.55-4.09-2.4-.89-.39-1.77-1-2.61-1.49l-5.24-3.07c-3.91-2.28-7.93-4.4-11.79-6.77Z"/>
    <path class="cls-7" d="M1478.83,352.15c.6.1,98.52,55.47,100.16,56.49.72.45,1.4,1.2,1.96,1.85-1.54.92-3.25,1.69-4.91,2.34,0,0-97.39-55.07-100.86-56.75-1-.49-1.99-.55-2.77-.91-.05-.02-.09-.04-.14-.07,0,0,5.02-3.2,6.55-2.95Z"/>
    <path class="cls-7" d="M1475.06,360.85c1.73.88,3.41,1.91,5.09,2.88l8.57,4.94c4.64,2.67,9.41,5.15,13.97,7.95-3.73,2.81-6.96,6.09-10.43,9.19-4.04,3.6-8.04,7.24-11.99,10.93-1.75,1.64-3.56,3.25-5.24,4.96-.05-4.51.02-9.03.02-13.54v-27.32Z"/>
    <path class="cls-7" d="M1562.51,482.35c.11-.25.22-.45.4-.65,1.93-2.1,4.25-4,6.35-5.95,1.85-1.72,3.63-3.66,5.65-5.18-.02,2.3.13,18.4-.17,19.05-.75-.74-2.02-1.32-2.93-1.88-3.04-1.85-6.15-3.74-9.3-5.39Z"/>
    <path class="cls-7" d="M1578.71,418.66c1.63-.72,3.21-1.54,4.74-2.45.25,7.46.05,15,0,22.46v26.25s-.03,18.34-.03,18.34c0,2.88.21,6.25-.05,9.07-.13,1.42-.51,2.71-1.51,3.79-1.09,1.17-2.74,1.78-4.3,1.97l.12-.31c.32-.77.69-1.61.77-2.44.3-3.1.16-6.3.17-9.41l.02-16.08.07-51.19Z"/>
    <path class="cls-7" d="M1580.95,410.49c1.37,1.48,2.48,3.66,2.49,5.71-1.53.91-3.11,1.73-4.74,2.45-.17-1.79-.63-3.09-1.66-4.56l-1.01-1.26c1.67-.65,3.38-1.42,4.91-2.34Z"/>
    <ellipse class="cls-7" cx="1525" cy="387.05" rx="1.15" ry="1.29"/>
    <path class="cls-13" d="M1422.54,483.5c.94-.21,1.51-.49,1.99-1.01.45-.47.64-.77.76-1.15.09-.28.08-.3-.15-.75-.52-.99-.55-1.49-.18-2.45.25-.65-.06-1.07-.98-1.36-.17-.05-.31-.14-.36-.21-.04-.07-.15-.25-.25-.42-.41-.7-.91-.86-2.02-.67-1.7.29-2.52.49-3.42.82-.13.05-.32.09-.42.09-.75,0-2.45.29-3.03.52-.93.37-1.78,1.26-1.79,1.87,0,.53.58,1.07,1.44,1.33.41.13.47.13.95.1.31-.02.51-.01.51.01,0,.02.31.33.68.68.64.6.71.65,1.05.75.43.13,1.3.28,1.57.28.11,0,.19.02.19.05s.1.19.23.35c.44.57,1.16,1.07,1.74,1.2.34.08.96.05,1.49-.06h0ZM1427.88,480.82c.21-.04.43-.14.61-.26.16-.11.49-.32.74-.48.51-.32.73-.54.97-.97.16-.29.16-.31.07-.64-.25-.89-1-1.35-2-1.23-.65.08-.91.25-1.21.79-.12.2-.32.44-.52.61-.43.36-.59.55-.68.84-.19.6.62,1.39,1.45,1.4.13,0,.39-.03.57-.07h0ZM1430.85,477.04c.29-.21.43-.45.43-.72,0-.3-.1-.38-.26-.22-.06.06-.31.23-.57.38-.5.3-.6.47-.35.61.27.15.51.13.75-.04ZM1427.55,476.56c.22-.03.57-.09.76-.15.64-.19,1.53-.89,1.84-1.45.14-.25.22-1.2.12-1.43-.06-.15-.07-.15-.5-.18-.24-.02-.63-.07-.85-.12s-.53-.09-.68-.09c-.41,0-.99.22-1.58.6-.59.38-.89.73-1.13,1.32-.12.3-.14.4-.08.61.14.48.52.77,1.16.88.41.07.45.07.94.01h0ZM1417.79,475.41c.85-.2,1.48-.59,2-1.24.27-.34.29-.38.29-.71s-.03-.38-.24-.66l-.24-.3h-.55c-.3,0-.77-.04-1.03-.08-.53-.09-.72-.07-1.44.16-1.26.4-1.57.7-1.57,1.55,0,.7.28,1.18.79,1.34.32.1,1.44.07,1.98-.06h0ZM1423.59,474.62c.11-.06.51-.34.9-.63.38-.29.81-.57.94-.62.3-.12.44-.39.49-.97.07-.77-.12-1.09-.83-1.37-.29-.11-.39-.13-.82-.13-.43,0-.56.02-1.02.16-.61.19-1.24.55-1.65.95-.23.22-.27.29-.26.49,0,.13.08.41.16.62.11.28.15.5.15.8,0,.38,0,.43.16.54.22.17.6.24,1.27.25.25,0,.36-.02.52-.1h0ZM1430.27,472.72c.1-.05.2-.16.25-.29.05-.11.11-.27.15-.36.14-.33.03-.33-.65,0-.44.22-.52.28-.52.39,0,.15.26.34.47.34.07,0,.21-.04.3-.08h0ZM1419.87,471.85c.1-.05.26-.19.36-.31.1-.12.24-.27.32-.34.08-.07.13-.13.11-.14-.06-.04-1.05.2-1.22.29-.24.14-.37.34-.28.48.05.09.11.11.3.11.13,0,.31-.04.42-.09ZM1426.31,470.25c.17-.23.31-.42.31-.43,0-.1-1.25.21-1.39.34-.2.19.14.5.54.5.22,0,.24-.01.54-.41Z"/>
  </g>
  <text class="cls-18" transform="translate(386.1 457.78) rotate(2.73) scale(.62 1)"><tspan class="cls-20" x="0" y="0">25,4</tspan><tspan class="cls-19" x="82.74" y="0">c</tspan><tspan class="cls-20" x="95.53" y="0"> </tspan></text>
  <text class="cls-17" transform="translate(420.4 483.52) rotate(2.73) scale(.62 1)"><tspan x="0" y="0">69%</tspan></text>
  <path d="M451.15,425.96h-4.02c-1,0-1.78-.88-1.64-1.88h0c.11-.82.81-1.44,1.64-1.44h4.02c1,0,1.78.88,1.64,1.88h0c-.11.82-.81,1.44-1.64,1.44Z"/>
  <text class="cls-15" transform="translate(84.68 463.21)"><tspan x="0" y="0">Der Sensor misst automatisch </tspan><tspan class="cls-22" x="-25.94" y="21.6">T</tspan><tspan x="-15.43" y="21.6">em</tspan><tspan class="cls-27" x="12.44" y="21.6">p</tspan><tspan x="24.69" y="21.6">eratur und </tspan><tspan class="cls-23" x="125.21" y="21.6">L</tspan><tspan x="134.94" y="21.6">uftfeuchtigkeit </tspan><tspan x="146.25" y="43.2">in dem Raum</tspan></text>
  <text class="cls-15" transform="translate(562.2 97.05)"><tspan x="0" y="0">Der Sensor li</tspan><tspan class="cls-27" x="113.16" y="0">e</tspan><tspan x="123.89" y="0">gt im Schlafzimmer </tspan><tspan x="0" y="21.6">der </tspan><tspan class="cls-22" x="35.33" y="21.6">T</tspan><tspan x="45.85" y="21.6">eilnehmer*innen, wo Hitze </tspan><tspan class="cls-27" x="0" y="43.2">b</tspan><tspan x="12.31" y="43.2">esonders starken Einfluss auf die </tspan><tspan x="0" y="64.8">Gesundheit hat</tspan></text>
  <text class="cls-15" transform="translate(589.45 531.15)"><tspan x="0" y="0"></tspan><tspan class="cls-27" x="13.57" y="0">b</tspan><tspan x="25.88" y="0">er eine WLAN-</tspan><tspan class="cls-21" x="156.38" y="0">V</tspan><tspan x="168.82" y="0">erbindung </tspan><tspan x="80.08" y="21.6">sendet der Sensor in </tspan><tspan x="1.75" y="43.2">r</tspan><tspan class="cls-27" x="9.2" y="43.2">e</tspan><tspan x="19.93" y="43.2">gelmigen Abstnden die </tspan><tspan x="48.44" y="64.8">Daten an den taz-Se</tspan><tspan class="cls-26" x="228.24" y="64.8">r</tspan><tspan x="236.23" y="64.8">ver</tspan></text>
  <text class="cls-15" transform="translate(1121.18 431.3)"><tspan x="0" y="0">Wie hei wird es in </tspan><tspan x="-17.72" y="21.6">Berlins Schlafzimme</tspan><tspan class="cls-27" x="164.33" y="21.6">r</tspan><tspan x="171.96" y="21.6">n? </tspan></text>
  <text class="cls-15" transform="translate(1450 577.26)"><tspan x="0" y="0">Mit der Messung </tspan><tspan x="0" y="21.6">knnen wir </tspan><tspan class="cls-24" x="108.03" y="21.6">F</tspan><tspan x="117.81" y="21.6">ragen </tspan><tspan class="cls-27" x="0" y="43.2">b</tspan><tspan x="12.31" y="43.2">eantworten, zu </tspan><tspan x="0" y="64.8">denen es bisher </tspan><tspan x="0" y="86.4">keine Daten gibt</tspan></text>
  <polygon class="cls-6" points="1014.8 327.46 930.95 278.59 846.31 327.46 846.31 473.6 930.68 522.31 1015.43 473.96 1014.8 473.6 1015.43 473.6 1015.43 327.46 1014.8 327.46"/>
  <polyline class="cls-6" points="856.75 333.64 930.31 376.08 1006.3 333.64"/>
  <line class="cls-6" x1="930.68" y1="522.31" x2="930.68" y2="376.08"/>
  <path class="cls-6" d="M849.99,469.23v-126.84c0-2.24,2.43-3.64,4.37-2.51l69.29,40.29c.89.52,1.45,1.48,1.45,2.51v126.27c0,2.23-2.41,3.63-4.35,2.52l-69.29-39.72c-.9-.52-1.46-1.48-1.46-2.52Z"/>
  <path class="cls-13" d="M953.34,395.07c.78-.88,1.19-1.67,1.46-2.77.25-1.01.33-1.59.31-2.28-.01-.51-.02-.52-.37-1.11-.78-1.28-.97-2.05-.95-3.8.02-1.18-.39-1.68-1.31-1.6-.17.01-.32-.03-.39-.12-.06-.08-.22-.31-.36-.52-.59-.87-1.09-.84-2.03.12-1.44,1.46-2.11,2.25-2.81,3.31-.1.15-.26.33-.35.38-.67.44-2.1,1.9-2.55,2.61-.72,1.13-1.2,3.05-1.01,4.04.16.84.86,1.36,1.72,1.28.41-.04.46-.06.89-.39.28-.21.46-.32.46-.28,0,.04.38.35.83.69.77.58.84.62,1.18.58.42-.05,1.25-.31,1.5-.47.1-.06.18-.07.19-.02s.15.24.32.43c.58.66,1.38,1.02,1.94.9.33-.07.88-.48,1.31-.97h0ZM957.27,387.66c.17-.19.34-.47.47-.78.11-.26.34-.8.51-1.19.36-.81.48-1.28.56-2.11.05-.56.05-.59-.14-1.06-.51-1.27-1.33-1.57-2.19-.78-.55.51-.73.93-.83,1.96-.04.39-.14.89-.27,1.27-.27.82-.35,1.22-.34,1.75.02,1.08,1.01,1.86,1.75,1.38.12-.08.34-.27.49-.44h0ZM958.73,379.9c.19-.51.24-.96.15-1.4-.09-.47-.22-.55-.31-.2-.03.12-.21.55-.39.95-.35.78-.39,1.1-.12,1.17.29.08.5-.09.66-.51ZM955.62,381.06c.19-.17.48-.48.63-.69.52-.68,1.09-2.31,1.19-3.39.04-.48-.19-2.05-.35-2.36-.1-.2-.11-.2-.51.01-.22.12-.58.26-.8.31s-.5.17-.63.25c-.37.24-.82.93-1.23,1.88-.41.95-.57,1.68-.59,2.78-.01.56,0,.72.12,1.01.28.69.71.92,1.32.72.39-.13.43-.15.85-.53h0ZM946.49,384.96c.7-.82,1.14-1.81,1.4-3.15.13-.69.14-.78.03-1.3s-.15-.6-.42-.91l-.31-.35-.5.32c-.27.18-.7.39-.95.48-.51.17-.67.32-1.24,1.1-1,1.37-1.18,2.04-.91,3.39.23,1.11.63,1.72,1.14,1.68.32-.02,1.32-.73,1.76-1.25h0ZM951.44,380.3c.08-.15.35-.84.6-1.53.25-.69.54-1.38.64-1.54.23-.37.27-.88.13-1.84-.18-1.28-.46-1.67-1.19-1.69-.3,0-.39.03-.78.28-.39.26-.5.36-.86.86-.49.66-.94,1.61-1.18,2.48-.14.49-.15.61-.08.94.04.2.2.61.34.89.19.38.3.71.39,1.19.12.61.14.68.32.77.26.13.62.03,1.22-.34.22-.14.32-.24.43-.46h0ZM956.83,373.34c.08-.14.13-.38.13-.61,0-.21.01-.5.02-.66.02-.62-.08-.55-.58.39-.33.61-.38.74-.34.92.05.24.34.39.53.27.06-.04.17-.18.24-.31h0ZM947.21,378.07c.07-.14.18-.45.22-.7.05-.25.13-.57.18-.72.05-.15.07-.28.05-.29-.07-.03-.88.93-1,1.17-.17.36-.22.76-.1.93.08.11.14.11.3,0,.12-.08.27-.24.34-.39ZM952.49,371.72c.08-.46.14-.85.14-.86-.03-.15-1.05,1.07-1.13,1.36-.12.42.28.71.64.48.2-.13.21-.16.35-.97Z"/>
  <path class="cls-6" d="M925.09,490.21l-74.73-43.14c-.15-.09-.14-.31.03-.38l1.85-.76v-35.23l72.85,41.87v2.81l-74.85-43.21c-.11-.06-.11-.22,0-.29l2.1-1.18v-70.82"/>
  <path class="cls-6" d="M925.09,420.53l-74.45-42.98c-.27-.16-.26-.56.03-.69l2.02-.94,72.4,40.7v3.91Z"/>
  <line class="cls-6" x1="925.09" y1="487.3" x2="852.23" y2="445.93"/>
  <g>
    <g>
      <polygon class="cls-6" points="584.57 224.57 580.29 222.06 580.29 234.06 584.57 236.53 588.04 234.52 588.04 222.63 584.57 224.57"/>
      <line class="cls-6" x1="584.57" y1="236.53" x2="584.57" y2="224.24"/>
    </g>
    <g>
      <polygon class="cls-6" points="442.32 208.09 438.04 205.58 438.04 217.58 442.32 220.05 445.78 218.05 445.78 206.16 442.32 208.09"/>
      <line class="cls-6" x1="442.32" y1="220.05" x2="442.32" y2="207.76"/>
    </g>
    <g>
      <polygon class="cls-6" points="527.62 257.75 523.34 255.24 523.34 267.24 527.62 269.71 531.09 267.7 531.09 255.81 527.62 257.75"/>
      <line class="cls-6" x1="527.62" y1="269.71" x2="527.62" y2="257.42"/>
    </g>
    <polygon class="cls-6" points="495.06 130 438.04 162.63 438.04 205.58 440.04 206.72 497.06 173.02 497.06 131.21 495.06 130"/>
    <polyline class="cls-6" points="440.04 199.49 440.04 206.72 527.57 257.42 588.04 222.34 588.04 215.26"/>
    <path class="cls-6" d="M499.47,149.32l-59.43,35.36v14.81l87.67,50.61,60.34-34.84v-12.01c0-1.73-.92-3.32-2.42-4.19l-86.15-49.74Z"/>
    <polyline class="cls-6" points="456.21 209.08 456.21 195.93 518.21 160.14"/>
    <polyline class="cls-6" points="465.58 214.48 465.58 201.33 527.57 165.54"/>
    <path class="cls-8" d="M527.7,250.1v-9.19c0-2.28-1.22-4.39-3.21-5.52l-59.11-33.76"/>
    <g>
      <path class="cls-6" d="M498.97,149.35l-1.72.07c-2.89.12-5.7.94-8.2,2.38l-18.09,10.44c-1.24.72-2,2.04-2,3.47v1.43c0,1.46.79,2.8,2.06,3.5l11.28,6.25c1.08.6,2.39.59,3.47-.02l27.17-15.37c.79-.45,1.28-1.28,1.28-2.19h0c0-2.87-1.53-5.51-4.01-6.95l-1.15-.66c-2.94-1.7-6.31-2.52-9.71-2.38l-.38.02Z"/>
      <path class="cls-6" d="M484.05,171.57s-1.48-3.39-5.81-5.82-6.03-1.48-6.03-1.48"/>
    </g>
    <g>
      <path class="cls-6" d="M472.76,164.35l-1.72.07c-2.89.12-5.7.94-8.2,2.38l-18.09,10.44c-1.24.72-2,2.04-2,3.47v1.43c0,1.46.79,2.8,2.06,3.5l11.28,6.25c1.08.6,2.39.59,3.47-.02l27.17-15.37c.79-.45,1.28-1.28,1.28-2.19h0c0-2.87-1.53-5.51-4.01-6.95l-1.15-.66c-2.94-1.7-6.31-2.52-9.71-2.38l-.38.02Z"/>
      <path class="cls-6" d="M457.84,186.57s-1.48-3.39-5.81-5.82-6.03-1.48-6.03-1.48"/>
    </g>
    <path class="cls-6" d="M484.56,163.33s2.91,1.63,7.97.98c5.06-.64,10.44-4.84,13.03-5.81"/>
    <polyline class="cls-8" points="440.04 184.68 440.04 163.76 438.04 162.63"/>
    <line class="cls-8" x1="497.06" y1="131.21" x2="440.04" y2="163.76"/>
    <path class="cls-8" d="M530.1,203.79s8.01,2.53,14.97,1.79,16.69-4.01,21.95-3.96"/>
    <path class="cls-6" d="M422.98,199.8c-7.2,0-13.03,3.57-13.03,7.96v24.1c0,4.4,5.83,7.96,13.03,7.96s13.03-3.57,13.03-7.96v-24.1c0-4.4-5.83-7.96-13.03-7.96Z"/>
    <ellipse class="cls-6" cx="422.98" cy="207.76" rx="13.03" ry="7.96"/>
    <path class="cls-6" d="M436.01,222.16c0,4.4-5.83,7.96-13.03,7.96-2.05,0-4-.29-5.73-.81-.39-.12-.65-.49-.65-.9v-7.7c0-.45.43-.76.87-.64,1.67.48,3.54.74,5.51.74,7.2,0,13.03-3.57,13.03-7.96v9.3Z"/>
    <circle cx="420.17" cy="225.24" r="1.45"/>
    <ellipse class="cls-6" cx="422.98" cy="207.76" rx="13.03" ry="7.96"/>
    <path class="cls-11" d="M424.28,203.85l.58,3.15c.18.99,1.08,1.69,2.08,1.62l4.95-.32c1.19-.08,2.04-1.18,1.83-2.35l-.62-3.32c-.19-1.02-1.13-1.72-2.15-1.62l-4.92.49c-1.16.12-1.97,1.2-1.76,2.34Z"/>
    <g>
      <ellipse class="cls-6" cx="416.6" cy="206.08" rx="4.13" ry="2.52"/>
      <line class="cls-3" x1="416.6" y1="206.08" x2="416.6" y2="195.01"/>
      <path class="cls-6" d="M422.53,193.95l-1.8-8.22c0-1.39-1.85-2.52-4.13-2.52s-4.13,1.13-4.13,2.52l-1.8,8.22c-.13.31-.21.63-.21.96,0,2.07,2.75,3.75,6.14,3.75s6.14-1.68,6.14-3.75c0-.33-.08-.65-.21-.96Z"/>
      <ellipse class="cls-6" cx="416.6" cy="185.35" rx="4.13" ry="2.52"/>
    </g>
    <line class="cls-2" x1="424.28" y1="203.85" x2="422.98" y2="208.12"/>
  </g>
  <g>
    <path class="cls-8" d="M1048.38,371.56s3.05,6.16,6.58,7.92,11.11,8.11,11.11,8.64,5.11,23.1,5.11,23.1c0,0,1.41,6.88,1.06,8.46-.35,1.59-5.64,7.64-5.82,7.64s1.41,7.53.71,10.7c-.71,3.17-1.41,11.64-1.59,13.05-.18,1.41-5.2,27.15-5.2,27.15,0,0-.44,3.53,0,6.52s6.26,26.18,6.26,26.18l3.69,6.55-1.49,5.18s-2.19,4.05-2.9,6.52c-.71,2.47-3.35,5.47-5.55,5.47s-9.2-1.79-8.46-2.22,6.26-11.93,6.08-12.79-11.46-20.08-11.46-20.08l-5.99,23.1-5.82,17.1.58,6.01.66,6.86-5.29,5.82-4.54,3.19s-7.45.2-7.98,0,.03-2.63.19-4.5,7.57-11.38,7.57-11.38l-1.91-11.47v-27.94l.5-54.57-2.64-14.1s1.41-7.47,1.94-10.35c.53-2.87.71-5.98.71-5.98l-5.83-6.59-1.76-4.23s-.71.88-.71-2.82,4.76-10.23,4.76-10.23l.88-11.11,3-5.99,3.96-3.88,1.16-3.88-1.94-4.05-.35-5.29s.35-6.08,2.29-9.12,5.47-4.81,7.93-5.51,4.05-3.7,4.05-3.7c0,0-.12-3.53,2.32-3.53s8.26.35,10.02,1.94,3.7,5.64,3.35,7.93c-.35,2.29-4.76,4.94-4.76,4.94l.88,4.05s-.74,5.05-1.23,6.17-4.11,5.12-4.11,5.12Z"/>
    <path class="cls-8" d="M1027.85,361.15s1.28,1.38,2.25,1.62,3.89-.61,4.87,0,4.14,5.35,5.84,6.08,3.77,1.09,4.01,0,.61-3.61,1.34-3.51,2.31.19,2.43,1.97c.12,1.78-1.22,4.24-1.22,4.24l-3.77,5.33-3.53,2.19s-2.31.73-3.65,0-4.5-2.55-4.5-2.55l-2-3.91"/>
    <path class="cls-8" d="M1053.56,378.54s-4.54,7.8-6.07,8.87-6.73,4.59-8.26,4.13-4.13-3.36-4.13-3.82v-9.17"/>
    <path class="cls-8" d="M1058.94,382.05s-5.85,7.47-6.13,10.47c-.28,3-1.5,12.02-1.5,12.02v3.52"/>
    <polyline class="cls-8" points="1065.16 453.19 1058.94 458.66 1050.7 432.22"/>
    <path class="cls-11" d="M1056.34,420.34l-24.25,14.5-29.69-17.14c-.21-.12-.21-.43,0-.54l23.35-12.65,30.58,15.83Z"/>
    <path class="cls-6" d="M1062.02,392.61s-3.82,12.08-3.82,14.68-1.22,7.95-1.22,7.95l-10.55,6.58-5.2,3.06v7.34s7.8-.31,9.48,0,11.32-2.75,11.32-2.75l4.4-2.16"/>
    <path class="cls-6" d="M1041.22,424.88s-3.67,0-2.99,1.07,0,6.27,0,6.27h2.99l.25-2.97-.25-4.37Z"/>
    <path class="cls-11" d="M1001.92,417.43l29.69,17.14c.19.11.42-.05.38-.27l-4.8-27.5-28.6-16.79,3.32,27.41Z"/>
    <path class="cls-6" d="M1038.23,425.95s-3.74-3.52-4.2-3.52-4.2-.55-4.2-.55l1.8,10.33,2.4-.61s-.15,2.14,1.07,2.14,3.13-1.53,3.13-1.53l.3-3.67-.3-2.6Z"/>
    <polygon class="cls-6" points="1004.45 420.44 1005.28 414.69 1006.2 414.69 1006.98 414.69 1009.59 416.78 1010.07 418.53 1009.49 422.55 1006.44 422.21 1004.45 420.44"/>
    <line class="cls-6" x1="1027.59" y1="432.25" x2="1023.96" y2="449.12"/>
    <polygon class="cls-6" points="1053.82 442.23 1036.59 442.23 1026.69 436.44 1027.59 433.75 1032.09 437.41 1039.8 437.41 1052.32 437.41 1053.82 442.23"/>
    <polyline class="cls-6" points="1057.96 519.62 1062.95 518.83 1067.72 512.91"/>
    <polyline class="cls-6" points="1046.5 499.54 1038.15 481 1036.74 448.37"/>
    <polyline class="cls-8" points="1025.87 545.75 1028.77 546.95 1035.08 543.79"/>
  </g>
  <g>
    <path class="cls-8" d="M1037.34,415.66s75.72-41.98,168.66-41.98,215.04,50.47,227.52,55.53"/>
    <polygon points="1428.95 431.85 1428.57 430.92 1433.15 429.09 1430.99 424.66 1431.89 424.22 1434.52 429.62 1428.95 431.85"/>
  </g>
</svg>